<svg xmlns="http://www.w3.org/2000/svg" xmlns:xlink="http://www.w3.org/1999/xlink" width="1000" zoomAndPan="magnify" viewBox="0 0 750 749.999995" height="1000" preserveAspectRatio="xMidYMid meet" version="1.0"><rect width="100%" height="100%" fill="white"/><path fill="#252f3e" d="M 250.34375 328.347656 C 250.34375 335.390625 251.105469 341.105469 252.4375 345.292969 C 253.957031 349.480469 255.859375 354.050781 258.527344 359 C 259.476562 360.523438 259.859375 362.046875 259.859375 363.378906 C 259.859375 365.28125 258.714844 367.1875 256.242188 369.089844 L 244.253906 377.085938 C 242.539062 378.230469 240.828125 378.800781 239.304688 378.800781 C 237.402344 378.800781 235.5 377.847656 233.597656 376.136719 C 230.933594 373.277344 228.648438 370.234375 226.746094 367.1875 C 224.84375 363.949219 222.941406 360.332031 220.847656 355.953125 C 206.003906 373.46875 187.355469 382.226562 164.898438 382.226562 C 148.914062 382.226562 136.164062 377.65625 126.839844 368.519531 C 117.515625 359.382812 112.757812 347.195312 112.757812 331.964844 C 112.757812 315.78125 118.464844 302.644531 130.074219 292.746094 C 141.683594 282.847656 157.097656 277.894531 176.699219 277.894531 C 183.167969 277.894531 189.828125 278.46875 196.867188 279.417969 C 203.910156 280.371094 211.140625 281.894531 218.753906 283.609375 L 218.753906 269.710938 C 218.753906 255.242188 215.707031 245.148438 209.808594 239.25 C 203.71875 233.347656 193.445312 230.492188 178.789062 230.492188 C 172.128906 230.492188 165.28125 231.253906 158.238281 232.964844 C 151.199219 234.679688 144.347656 236.773438 137.6875 239.4375 C 134.640625 240.769531 132.359375 241.53125 131.027344 241.914062 C 129.695312 242.292969 128.742188 242.484375 127.980469 242.484375 C 125.316406 242.484375 123.984375 240.582031 123.984375 236.582031 L 123.984375 227.253906 C 123.984375 224.207031 124.367188 221.921875 125.316406 220.589844 C 126.269531 219.257812 127.980469 217.925781 130.644531 216.59375 C 137.304688 213.164062 145.296875 210.308594 154.621094 208.023438 C 163.949219 205.550781 173.84375 204.40625 184.308594 204.40625 C 206.953125 204.40625 223.511719 209.546875 234.167969 219.828125 C 244.632812 230.109375 249.960938 245.722656 249.960938 266.664062 L 249.960938 328.347656 Z M 173.082031 357.285156 C 179.363281 357.285156 185.832031 356.144531 192.683594 353.859375 C 199.53125 351.574219 205.621094 347.386719 210.761719 341.675781 C 213.804688 338.058594 216.089844 334.058594 217.230469 329.492188 C 218.371094 324.921875 219.132812 319.398438 219.132812 312.925781 L 219.132812 304.929688 C 213.613281 303.597656 207.714844 302.457031 201.625 301.695312 C 195.535156 300.933594 189.636719 300.550781 183.738281 300.550781 C 170.988281 300.550781 161.664062 303.027344 155.382812 308.167969 C 149.105469 313.308594 146.058594 320.542969 146.058594 330.0625 C 146.058594 339.011719 148.34375 345.671875 153.101562 350.242188 C 157.667969 355.003906 164.328125 357.285156 173.082031 357.285156 Z M 325.890625 377.847656 C 322.464844 377.847656 320.183594 377.277344 318.660156 375.945312 C 317.136719 374.800781 315.804688 372.136719 314.664062 368.519531 L 269.941406 221.351562 C 268.800781 217.542969 268.230469 215.070312 268.230469 213.738281 C 268.230469 210.691406 269.753906 208.976562 272.796875 208.976562 L 291.445312 208.976562 C 295.0625 208.976562 297.535156 209.546875 298.867188 210.882812 C 300.390625 212.023438 301.53125 214.6875 302.675781 218.304688 L 334.644531 344.339844 L 364.332031 218.304688 C 365.28125 214.5 366.425781 212.023438 367.945312 210.882812 C 369.46875 209.738281 372.132812 208.976562 375.558594 208.976562 L 390.78125 208.976562 C 394.398438 208.976562 396.871094 209.546875 398.394531 210.882812 C 399.917969 212.023438 401.25 214.6875 402.011719 218.304688 L 432.078125 345.863281 L 465 218.304688 C 466.140625 214.5 467.472656 212.023438 468.804688 210.882812 C 470.328125 209.738281 472.800781 208.976562 476.226562 208.976562 L 493.925781 208.976562 C 496.96875 208.976562 498.679688 210.5 498.679688 213.738281 C 498.679688 214.6875 498.492188 215.640625 498.300781 216.78125 C 498.109375 217.925781 497.730469 219.449219 496.96875 221.542969 L 451.105469 368.710938 C 449.964844 372.515625 448.632812 374.992188 447.109375 376.136719 C 445.589844 377.277344 443.113281 378.039062 439.878906 378.039062 L 423.515625 378.039062 C 419.898438 378.039062 417.425781 377.46875 415.902344 376.136719 C 414.378906 374.800781 413.046875 372.328125 412.285156 368.519531 L 382.789062 245.722656 L 353.484375 368.328125 C 352.53125 372.136719 351.390625 374.613281 349.867188 375.945312 C 348.347656 377.277344 345.683594 377.847656 342.257812 377.847656 Z M 570.421875 382.988281 C 560.527344 382.988281 550.632812 381.847656 541.117188 379.5625 C 531.601562 377.277344 524.179688 374.800781 519.234375 371.945312 C 516.1875 370.234375 514.09375 368.328125 513.335938 366.617188 C 512.574219 364.902344 512.191406 363 512.191406 361.285156 L 512.191406 351.574219 C 512.191406 347.578125 513.714844 345.671875 516.570312 345.671875 C 517.710938 345.671875 518.851562 345.863281 519.996094 346.246094 C 521.136719 346.625 522.847656 347.386719 524.753906 348.148438 C 531.222656 351.003906 538.261719 353.289062 545.683594 354.8125 C 553.296875 356.335938 560.71875 357.097656 568.332031 357.097656 C 580.320312 357.097656 589.644531 355.003906 596.113281 350.8125 C 602.585938 346.625 606.007812 340.53125 606.007812 332.726562 C 606.007812 327.394531 604.296875 323.015625 600.871094 319.398438 C 597.445312 315.78125 590.976562 312.546875 581.652344 309.5 L 554.058594 300.933594 C 540.167969 296.554688 529.890625 290.082031 523.609375 281.515625 C 517.332031 273.136719 514.09375 263.808594 514.09375 253.90625 C 514.09375 245.910156 515.808594 238.867188 519.234375 232.773438 C 522.660156 226.683594 527.226562 221.351562 532.933594 217.164062 C 538.644531 212.785156 545.113281 209.546875 552.726562 207.265625 C 560.339844 204.980469 568.332031 204.027344 576.703125 204.027344 C 580.890625 204.027344 585.265625 204.21875 589.453125 204.789062 C 593.832031 205.359375 597.828125 206.121094 601.824219 206.882812 C 605.628906 207.835938 609.246094 208.785156 612.671875 209.929688 C 616.09375 211.070312 618.757812 212.214844 620.664062 213.355469 C 623.328125 214.878906 625.230469 216.402344 626.371094 218.117188 C 627.511719 219.640625 628.085938 221.734375 628.085938 224.398438 L 628.085938 233.347656 C 628.085938 237.34375 626.5625 239.4375 623.707031 239.4375 C 622.183594 239.4375 619.710938 238.675781 616.476562 237.152344 C 605.628906 232.203125 593.449219 229.730469 579.9375 229.730469 C 569.09375 229.730469 560.527344 231.441406 554.628906 235.058594 C 548.730469 238.675781 545.683594 244.199219 545.683594 252.003906 C 545.683594 257.335938 547.589844 261.902344 551.394531 265.519531 C 555.199219 269.140625 562.242188 272.757812 572.328125 275.992188 L 599.347656 284.558594 C 613.050781 288.9375 622.945312 295.03125 628.84375 302.835938 C 634.746094 310.640625 637.597656 319.589844 637.597656 329.492188 C 637.597656 337.675781 635.886719 345.101562 632.652344 351.574219 C 629.226562 358.046875 624.660156 363.761719 618.757812 368.328125 C 612.859375 373.089844 605.820312 376.515625 597.636719 378.992188 C 589.074219 381.65625 580.128906 382.988281 570.421875 382.988281 Z M 570.421875 382.988281 " fill-opacity="1" fill-rule="nonzero"/><path fill="#ff9900" d="M 606.390625 475.515625 C 543.78125 521.777344 452.820312 546.339844 374.605469 546.339844 C 264.996094 546.339844 166.230469 505.785156 91.632812 438.390625 C 85.734375 433.058594 91.0625 425.824219 98.105469 430.015625 C 178.789062 476.847656 278.316406 505.214844 381.269531 505.214844 C 450.726562 505.214844 527.035156 490.746094 597.253906 461.046875 C 607.722656 456.285156 616.667969 467.898438 606.390625 475.515625 Z M 606.390625 475.515625 " fill-opacity="1" fill-rule="evenodd"/><path fill="#ff9900" d="M 632.460938 445.816406 C 624.46875 435.535156 579.558594 440.867188 559.195312 443.339844 C 553.105469 444.101562 552.15625 438.769531 557.675781 434.773438 C 593.449219 409.644531 652.25 416.878906 659.101562 425.253906 C 665.953125 433.820312 657.199219 492.648438 623.707031 520.828125 C 618.570312 525.207031 613.621094 522.921875 615.90625 517.210938 C 623.515625 498.363281 640.453125 455.90625 632.460938 445.816406 Z M 632.460938 445.816406 " fill-opacity="1" fill-rule="evenodd"/></svg>
