<?xml version="1.0" encoding="UTF-8" standalone="no"?>
<svg
   id="Layer_1"
   viewBox="0 0 350.73 350.73"
   version="1.1"
   width="350.73001"
   height="350.73001"
   xmlns="http://www.w3.org/2000/svg"
   xmlns:svg="http://www.w3.org/2000/svg">
  <rect width="100%" height="100%" fill="white"/>
  <defs
     id="defs1">
    <style
       id="style1">.cls-1{fill:#161d26;stroke-width:0px;}</style>
  </defs>
  <path
     class="cls-1"
     d="m 109.73494,150.73001 c 0,3.74 0.38,6.71 1.14,8.92 0.76,2.22 1.84,4.61 3.24,7.18 0.46,0.82 0.7,1.57 0.7,2.27 0,1.05 -0.64,2.04 -1.93,2.98 l -6.3,4.2 c -0.93,0.58 -1.81,0.88 -2.62,0.88 -1.05,0 -2.04,-0.46 -2.97,-1.4 -1.400003,-1.4 -2.600003,-2.95 -3.590003,-4.64 -0.99,-1.69 -2.01,-3.64 -3.06,-5.86 -7.82,9.22 -17.62,13.83 -29.4,13.83 -8.4,0 -15.05,-2.39 -19.95,-7.18 -4.9,-4.78 -7.35,-11.2 -7.35,-19.25 0,-8.51 3.03,-15.37 9.1,-20.56 6.06,-5.19 14.23,-7.79001 24.5,-7.79001 3.38,0 6.91,0.26 10.59,0.79001 3.68,0.53 7.5,1.26 11.46,2.19 V 119.94 c 0,-7.58 -1.58,-12.92 -4.72,-16.01 -3.15,-3.09 -8.58,-4.639997 -16.28,-4.639997 -3.5,0 -7.09,0.44 -10.76,1.309997 -3.67,0.88 -7.26,2.01 -10.76,3.41 -1.63,0.7 -2.8,1.14 -3.5,1.31 -0.7,0.17 -1.22,0.26 -1.57,0.26 -1.4,0 -2.1,-1.05 -2.1,-3.15 v -4.899997 c 0,-1.63 0.23,-2.8 0.7,-3.5 0.46,-0.7 1.4,-1.4 2.8,-2.1 3.5,-1.75 7.7,-3.26 12.6,-4.55 4.9,-1.28 10.09,-1.93 15.57,-1.93 11.9,0 20.62,2.71 26.160003,8.14 5.54,5.42 8.31,13.619997 8.31,24.589997 v 32.55001 z m -40.600003,15.23 c 3.27,0 6.71,-0.61 10.33,-1.84 3.62,-1.22 6.76,-3.35 9.45,-6.39 1.63,-1.86 2.77,-4 3.41,-6.39 0.64,-2.39 0.96,-5.28 0.96,-8.66 v -4.2 c -2.92,-0.7 -5.98,-1.25 -9.19,-1.66 -3.21,-0.41 -6.33,-0.61 -9.36,-0.61 -6.65,0 -11.61,1.34 -14.88,4.02 -3.27,2.69 -4.9,6.54 -4.9,11.55 0,4.67 1.23,8.2 3.67,10.59 2.45,2.39 5.95,3.59 10.5,3.59 z m 80.330003,10.85 c -1.75,0 -3.04,-0.32 -3.85,-0.96 -0.82,-0.64 -1.52,-1.95 -2.1,-3.94 l -23.45,-77.350007 c -0.59,-1.98 -0.87,-3.33 -0.87,-4.02 0,-1.63 0.81,-2.45 2.45,-2.45 h 9.8 c 1.86,0 3.18,0.32 3.94,0.96 0.76,0.64 1.43,1.96 2.01,3.94 l 16.8,66.150007 15.57,-66.150007 c 0.46,-1.98 1.11,-3.29 1.93,-3.94 0.81,-0.64 2.16,-0.96 4.02,-0.96 h 8.05 c 1.87,0 3.21,0.32 4.03,0.96 0.81,0.64 1.46,1.96 1.92,3.94 l 15.75,67.030007 17.32,-67.040007 c 0.58,-1.98 1.25,-3.29 2.01,-3.94 0.76,-0.64 2.07,-0.96 3.94,-0.96 h 9.27 c 1.63,0 2.45,0.82 2.45,2.45 0,0.47 -0.06,0.99 -0.17,1.57 -0.12,0.59 -0.35,1.4 -0.7,2.45 l -24.15,77.350007 c -0.59,1.99 -1.29,3.3 -2.1,3.94 -0.82,0.64 -2.1,0.96 -3.85,0.96 h -8.58 c -1.87,0 -3.21,-0.35 -4.03,-1.05 -0.82,-0.7 -1.46,-2.04 -1.92,-4.03 l -15.58,-64.40001 -15.4,64.40001 c -0.47,1.99 -1.11,3.33 -1.92,4.03 -0.82,0.7 -2.16,1.05 -4.03,1.05 h -8.58 z m 128.45,2.63 c -5.25,0 -10.38,-0.58 -15.4,-1.75 -5.02,-1.16 -8.87,-2.51 -11.55,-4.03 -1.63,-0.93 -2.66,-1.86 -3.06,-2.8 -0.41,-0.93 -0.61,-1.86 -0.61,-2.8 v -5.08 c 0,-2.1 0.76,-3.15 2.28,-3.15 0.58,0 1.19,0.12 1.84,0.35 0.64,0.24 1.49,0.59 2.54,1.05 3.38,1.52 7.06,2.69 11.02,3.5 3.96,0.82 7.93,1.23 11.9,1.23 6.3,0 11.17,-1.11 14.61,-3.33 3.44,-2.21 5.16,-5.37 5.16,-9.45 0,-2.8 -0.9,-5.13 -2.71,-7 -1.81,-1.87 -5.16,-3.62 -10.06,-5.25 l -14.53,-4.55 c -7.35,-2.33 -12.69,-5.71 -16.01,-10.15 -3.32,-4.43001 -4.99,-9.27001 -4.99,-14.52001 0,-4.2 0.9,-7.9 2.71,-11.11 1.81,-3.209997 4.2,-5.949997 7.17,-8.229997 2.97,-2.27 6.45,-4 10.41,-5.16 3.96,-1.16 8.16,-1.75 12.6,-1.75 2.21,0 4.46,0.15 6.74,0.44 2.28,0.29 4.43,0.67 6.47,1.14 2.04,0.47 3.94,0.99 5.69,1.57 1.75,0.59 3.15,1.17 4.2,1.75 1.4,0.82 2.39,1.64 2.98,2.45 0.58,0.82 0.87,1.92 0.87,3.33 V 100.86 c 0,2.1 -0.76,3.15 -2.28,3.15 -0.82,0 -2.1,-0.41 -3.85,-1.23 -5.72,-2.56 -12.14,-3.849997 -19.25,-3.849997 -5.72,0 -10.15,0.94 -13.3,2.799997 -3.15,1.87 -4.72,4.84 -4.72,8.93 0,2.8 0.99,5.16 2.97,7.09 1.98,1.92 5.66,3.76 11.03,5.51 l 14.17,4.55001 c 7.23,2.34 12.4,5.54 15.49,9.63 3.09,4.08 4.64,8.75 4.64,14 0,4.32 -0.87,8.2 -2.62,11.64 -1.75,3.44 -4.17,6.39 -7.26,8.84 -3.09,2.45 -6.8,4.32 -11.11,5.6 -4.32,1.28 -9.04,1.92 -14.17,1.92 z m 14.13,40.93 c -36.91,15.66 -77.03,23.23 -113.52,23.23 -54.1,0 -106.470003,-14.84 -148.820003,-39.49 -3.710001,-2.16 -6.45,1.65 -3.37,4.43 39.26,35.45 91.130003,56.74 148.740003,56.74 41.1,0 88.84,-12.92 121.76,-37.22 5.45,-4.03 0.78,-10.05 -4.79,-7.69 z m 9.82,29.59 c -1.2,3 1.38,4.21 4.1,1.94 17.66,-14.78 22.23,-45.74 18.61,-50.21 -3.59,-4.43 -34.47,-8.25 -53.32,4.98 -2.9,2.03 -2.4,4.84 0.82,4.46 10.62,-1.27 34.24,-4.11 38.45,1.28 4.22,5.4 -4.68,27.62 -8.66,37.54 z"
     id="path1" />
</svg>
