<svg xmlns="http://www.w3.org/2000/svg" xmlns:xlink="http://www.w3.org/1999/xlink" width="1000" zoomAndPan="magnify" viewBox="0 0 750 749.999995" height="1000" preserveAspectRatio="xMidYMid meet" version="1.0"><rect width="100%" height="100%" fill="white"/><defs><clipPath id="2efcc355c1"><path d="M 52.585938 315.207031 L 134 315.207031 L 134 412 L 52.585938 412 Z M 52.585938 315.207031 " clip-rule="nonzero"/></clipPath><clipPath id="7a3aef0c35"><path d="M 137 315.207031 L 163 315.207031 L 163 412 L 137 412 Z M 137 315.207031 " clip-rule="nonzero"/></clipPath><clipPath id="f430be52fe"><path d="M 432 315.207031 L 504 315.207031 L 504 414 L 432 414 Z M 432 315.207031 " clip-rule="nonzero"/></clipPath><clipPath id="435125d445"><path d="M 629 340 L 697.585938 340 L 697.585938 434 L 629 434 Z M 629 340 " clip-rule="nonzero"/></clipPath></defs><g clip-path="url(#2efcc355c1)"><path fill="#000000" d="M 52.585938 315.464844 L 99.871094 315.464844 C 108.878906 315.464844 115.632812 317.710938 120.636719 321.453125 C 126.140625 325.941406 129.144531 332.425781 129.144531 340.410156 C 129.144531 349.636719 125.390625 355.375 117.886719 358.867188 L 117.886719 359.367188 C 127.894531 362.609375 133.648438 371.589844 133.648438 382.316406 C 133.648438 392.542969 129.644531 400.523438 123.140625 405.511719 C 117.632812 409.503906 110.628906 411.25 101.121094 411.25 L 52.585938 411.25 Z M 95.117188 352.882812 C 100.121094 352.882812 103.875 350.136719 103.875 344.398438 C 103.875 338.914062 100.121094 336.167969 94.867188 336.167969 L 78.605469 336.167969 L 78.605469 352.632812 L 95.117188 352.632812 Z M 97.367188 390.046875 C 103.125 390.046875 107.375 386.554688 107.375 380.320312 C 107.375 373.585938 102.875 370.589844 97.367188 370.589844 L 78.855469 370.589844 L 78.855469 390.296875 L 97.367188 390.296875 Z M 97.367188 390.046875 " fill-opacity="1" fill-rule="nonzero"/></g><g clip-path="url(#7a3aef0c35)"><path fill="#000000" d="M 137.902344 315.464844 L 162.667969 315.464844 L 162.667969 411.5 L 137.902344 411.5 Z M 137.902344 315.464844 " fill-opacity="1" fill-rule="nonzero"/></g><path fill="#000000" d="M 167.671875 377.324219 C 167.671875 355.625 181.683594 341.15625 203.453125 341.15625 C 225.21875 341.15625 238.980469 355.875 238.980469 377.324219 C 238.980469 399.027344 225.21875 413.496094 203.453125 413.496094 C 181.683594 413.496094 167.671875 399.027344 167.671875 377.324219 Z M 214.210938 377.324219 C 214.210938 365.351562 210.457031 357.871094 202.949219 357.871094 C 195.445312 357.871094 191.941406 365.351562 191.941406 377.324219 C 191.941406 389.300781 195.445312 397.03125 202.949219 397.03125 C 210.457031 396.78125 214.210938 389.300781 214.210938 377.324219 Z M 214.210938 377.324219 " fill-opacity="1" fill-rule="nonzero"/><path fill="#000000" d="M 241.730469 377.324219 C 241.730469 355.625 255.742188 341.15625 277.507812 341.15625 C 299.277344 341.15625 312.785156 355.625 312.785156 377.324219 C 312.785156 399.027344 299.023438 413.496094 277.257812 413.496094 C 255.742188 413.496094 241.730469 399.027344 241.730469 377.324219 Z M 288.265625 377.324219 C 288.265625 365.351562 284.515625 357.871094 277.007812 357.871094 C 269.503906 357.871094 266 365.351562 266 377.324219 C 266 389.300781 269.503906 397.03125 277.007812 397.03125 C 284.515625 396.78125 288.265625 389.300781 288.265625 377.324219 Z M 288.265625 377.324219 " fill-opacity="1" fill-rule="nonzero"/><path fill="#000000" d="M 317.789062 342.902344 L 340.808594 342.902344 L 340.808594 353.128906 L 341.308594 353.128906 C 345.8125 345.148438 352.066406 340.90625 362.074219 340.90625 C 370.832031 340.90625 377.335938 345.148438 380.589844 352.632812 L 381.089844 352.632812 C 386.59375 343.652344 393.847656 340.90625 402.355469 340.90625 C 418.367188 340.90625 425.121094 352.632812 425.121094 368.347656 L 425.121094 411.25 L 401.105469 411.25 L 401.105469 372.585938 C 401.105469 365.601562 398.851562 361.113281 392.847656 361.113281 C 386.84375 361.113281 383.839844 366.601562 383.839844 374.082031 L 383.839844 411.25 L 359.824219 411.25 L 359.824219 372.585938 C 359.824219 365.601562 357.570312 361.113281 351.566406 361.113281 C 345.5625 361.113281 342.558594 366.601562 342.558594 374.082031 L 342.558594 411.25 L 317.789062 411.25 C 317.789062 411.25 317.789062 342.902344 317.789062 342.902344 Z M 317.789062 342.902344 " fill-opacity="1" fill-rule="nonzero"/><g clip-path="url(#f430be52fe)"><path fill="#000000" d="M 455.398438 402.269531 L 455.144531 402.269531 L 455.144531 411.25 L 432.128906 411.25 L 432.128906 315.464844 L 456.148438 315.464844 L 456.148438 349.886719 L 456.648438 349.886719 C 461.152344 343.902344 467.40625 340.660156 476.164062 340.660156 C 493.425781 340.660156 503.433594 356.125 503.433594 376.828125 C 503.433594 400.023438 492.675781 413.496094 474.660156 413.496094 C 467.15625 413.496094 459.398438 410.003906 455.398438 402.269531 Z M 478.664062 376.578125 C 478.664062 365.601562 474.660156 358.367188 467.40625 358.367188 C 459.898438 358.367188 455.398438 365.601562 455.398438 376.578125 C 455.398438 387.554688 460.148438 394.785156 467.40625 394.785156 C 474.660156 394.785156 478.664062 387.800781 478.664062 376.578125 Z M 478.664062 376.578125 " fill-opacity="1" fill-rule="nonzero"/></g><path fill="#000000" d="M 506.1875 377.078125 C 506.1875 355.625 520.445312 340.90625 540.960938 340.90625 C 551.222656 340.90625 558.976562 344.152344 564.980469 349.886719 C 572.988281 357.621094 576.492188 369.59375 576.238281 383.5625 L 530.203125 383.5625 C 531.207031 392.042969 535.207031 396.53125 542.464844 396.53125 C 546.71875 396.53125 550.46875 394.539062 551.972656 390.046875 L 575.238281 390.046875 C 571.234375 405.761719 558.976562 413.496094 541.714844 413.496094 C 520.445312 413.246094 506.1875 398.777344 506.1875 377.078125 Z M 530.203125 369.84375 L 552.222656 369.84375 C 551.722656 361.609375 547.21875 357.371094 541.464844 357.371094 C 534.707031 357.121094 530.957031 361.859375 530.203125 369.84375 Z M 530.203125 369.84375 " fill-opacity="1" fill-rule="nonzero"/><path fill="#000000" d="M 603.511719 354.628906 L 604.011719 354.628906 C 609.015625 345.148438 615.519531 341.40625 623.777344 341.40625 C 625.777344 341.40625 627.03125 341.65625 627.78125 342.15625 L 627.78125 363.109375 L 627.28125 363.109375 C 613.019531 360.613281 604.761719 367.347656 604.761719 382.8125 L 604.761719 411.5 L 580.492188 411.5 L 580.492188 342.902344 L 603.511719 342.902344 Z M 603.511719 354.628906 " fill-opacity="1" fill-rule="nonzero"/><g clip-path="url(#435125d445)"><path fill="#000000" d="M 630.28125 411.5 L 653.550781 411.5 C 654.550781 414.492188 657.554688 417.234375 663.308594 417.234375 C 671.0625 417.234375 673.816406 412.496094 673.816406 405.261719 L 673.816406 400.273438 L 673.316406 400.273438 C 669.5625 404.765625 664.308594 408.007812 656.800781 408.007812 C 642.042969 408.007812 629.03125 397.03125 629.03125 375.578125 C 629.03125 355.875 639.539062 340.660156 655.550781 340.660156 C 664.808594 340.660156 670.3125 344.398438 674.066406 350.136719 L 674.566406 350.136719 L 674.566406 342.652344 L 697.585938 342.652344 L 697.585938 402.019531 C 697.585938 412.996094 693.832031 421.476562 688.078125 426.464844 C 682.070312 431.703125 673.566406 433.949219 663.808594 433.949219 C 645.292969 434.199219 632.535156 426.714844 630.28125 411.5 Z M 674.816406 374.582031 C 674.816406 366.101562 670.8125 359.117188 663.808594 359.117188 C 657.054688 359.117188 652.800781 365.101562 652.800781 374.582031 C 652.800781 383.8125 657.054688 390.296875 663.808594 390.296875 C 670.5625 390.296875 674.816406 383.5625 674.816406 374.582031 Z M 674.816406 374.582031 " fill-opacity="1" fill-rule="nonzero"/></g></svg>
