<?xml version="1.0" encoding="UTF-8" standalone="no"?>
<!-- Created with Inkscape (http://www.inkscape.org/) -->

<svg
   width="1000.0001"
   height="1000.0001"
   viewBox="0 0 264.58335 264.58335"
   version="1.1"
   id="svg1"
   xml:space="preserve"
   inkscape:export-filename="lgt_new.svg"
   inkscape:export-xdpi="96"
   inkscape:export-ydpi="96"
   xmlns:inkscape="http://www.inkscape.org/namespaces/inkscape"
   xmlns:sodipodi="http://sodipodi.sourceforge.net/DTD/sodipodi-0.dtd"
   xmlns:xlink="http://www.w3.org/1999/xlink"
   xmlns="http://www.w3.org/2000/svg"
   xmlns:svg="http://www.w3.org/2000/svg"><rect width="100%" height="100%" fill="white"/><sodipodi:namedview
     id="namedview1"
     pagecolor="#ffffff"
     bordercolor="#cccccc"
     borderopacity="1"
     inkscape:showpageshadow="0"
     inkscape:pageopacity="1"
     inkscape:pagecheckerboard="0"
     inkscape:deskcolor="#d1d1d1"
     inkscape:document-units="mm"
     inkscape:zoom="0.78290445"
     inkscape:cx="273.97979"
     inkscape:cy="547.95959"
     inkscape:window-width="1728"
     inkscape:window-height="1051"
     inkscape:window-x="0"
     inkscape:window-y="38"
     inkscape:window-maximized="1"
     inkscape:current-layer="layer1"><inkscape:page
       x="0"
       y="0"
       width="264.58334"
       height="264.58334"
       id="page2"
       margin="0"
       bleed="0" /></sodipodi:namedview><defs
     id="defs1"><linearGradient
       x1="16.92045"
       y1="3.2442596"
       x2="188.16988"
       y2="168.00517"
       id="linearGradient-1"
       gradientTransform="scale(1.0097032,0.99039003)"
       gradientUnits="userSpaceOnUse"><stop
         stop-color="#DBBB42"
         offset="0%"
         id="stop1" /><stop
         stop-color="#F8D957"
         offset="37.7731643%"
         id="stop2" /><stop
         stop-color="#FFE36C"
         offset="50.2431163%"
         id="stop3" /><stop
         stop-color="#F5CC52"
         offset="66.6876093%"
         id="stop4" /><stop
         stop-color="#C89225"
         offset="100%"
         id="stop5" /></linearGradient><path
       d="m 93.585713,54.484631 c 2.220748,-0.219491 3.891246,-2.056735 3.960571,-4.229531 l -5.93e-4,-0.14705 C 97.515078,42.371215 96.736315,34.600431 95.222043,26.948273 L 94.590224,23.757177 C 93.367865,17.582434 87.352254,13.55384 81.180811,14.77663 80.745312,14.862886 80.314159,14.974211 79.897818,15.107247 65.44696,20.125718 53.20579,29.437869 44.463226,42.051059 35.760952,54.606614 31.330715,69.260747 31.645538,84.438539 l 0.0715,0.951782 c 0.0788,0.545963 0.256559,1.059357 0.528326,1.52755 2.016527,3.475329 0.835052,7.927902 -2.638273,9.94516 -3.473128,2.017257 -7.924301,0.835721 -9.940631,-2.63941 -1.294646,-2.231024 -2.105207,-4.667722 -2.409562,-7.242982 -0.01225,-0.102639 -0.02212,-0.206068 -0.02963,-0.3093 l -0.100333,-1.336285 c -0.0097,-0.125141 -0.0156,-0.249887 -0.01856,-0.375423 C 16.681957,66.617587 22.007683,48.912894 32.51061,33.75938 43.037436,18.571917 57.789489,7.3627143 75.172705,1.3448911 c 0.04187,-0.014409 0.121269,-0.04145 0.16314,-0.05507 0.982193,-0.32015581 1.998356,-0.58504425 3.019655,-0.78755956 6.80188,-1.34674651 13.719694,0.0359238 19.480721,3.89417586 5.761229,3.8586469 9.675579,9.7306036 11.022169,16.5346046 l 0.63162,3.191097 c 2.01199,10.167808 2.86402,20.529841 2.53162,30.797327 -0.003,0.0979 -0.008,0.195607 -0.0156,0.293509 l -0.0109,0.151591 c -0.33201,7.097707 -5.88013,12.954465 -12.968388,13.655374 -0.307318,0.03059 -0.618784,0.05112 -0.927682,0.06178 -0.175384,0.0057 -0.350769,0.0053 -0.526351,-0.0014 l -0.12107,-0.0045 c -1.174958,-0.04323 -2.371444,-0.05803 -3.5545,-0.04264 l -2.765269,0.254625 c -0.136476,0.01263 -0.273347,0.02132 -0.410416,0.02625 -20.130908,0.70979 -36.852877,15.726715 -39.76114,35.706835 -1.318544,9.05793 0.304356,18.07282 4.693117,26.07079 4.249916,7.74532 10.970225,14.05665 18.922571,17.77062 l 2.212848,1.02205 c 5.238626,2.09483 10.752969,3.57343 16.39332,4.39533 22.44448,3.26946 44.60001,-3.98793 60.79682,-19.9146 l 0.7602,-0.78519 c 3.25488,-3.40348 5.35554,-7.71847 6.04385,-12.44581 0.68791,-4.72515 -0.0948,-9.45841 -2.26282,-13.68853 l -0.15603,-0.30436 C 150.83964,93.041703 138.70927,81.7194 124.20213,75.256478 c -0.0731,-0.03277 -0.14596,-0.06632 -0.21765,-0.101455 l -0.35729,-0.1735 c -4.54262,-2.206351 -7.55062,-6.522928 -8.04695,-11.546531 -0.13035,-1.322863 -0.0786,-2.653227 0.15386,-3.954772 0.0166,-0.09396 0.0352,-0.187515 0.0557,-0.28068 l 0.0472,-0.215345 c 3.23533,-14.81283 8.91123,-28.911527 16.86851,-41.896784 0.0205,-0.03356 0.0413,-0.06711 0.0624,-0.100074 l 0.21726,-0.342263 c 2.10007,-3.354134 5.52698,-5.717405 9.40816,-6.486016 3.73344,-0.7411745 7.53344,0.0049 10.7109,2.096606 l 0.18743,0.118627 c 0.11139,0.07007 0.22101,0.143695 0.32845,0.220083 18.07725,12.85005 30.40592,31.917083 34.71469,53.688662 1.30827,6.608197 1.84766,13.344496 1.60394,20.020592 l -0.009,0.234492 c -0.005,0.137181 -0.0146,0.27456 -0.0275,0.411544 -0.31779,3.334002 -1.52731,6.535362 -3.49822,9.258068 -2.35584,3.254456 -6.903,3.981808 -10.15571,1.625846 -3.2535,-2.356954 -3.98071,-6.905653 -1.62507,-10.160307 0.42029,-0.580504 0.6889,-1.252002 0.78192,-1.950147 0.19889,-5.526734 -0.25123,-11.12038 -1.33869,-16.613361 -3.24481,-16.396634 -11.95755,-30.947733 -24.73653,-41.48603 l -0.0999,-0.07777 c -0.86072,-0.678999 -1.97524,-1.038434 -3.15237,-0.921977 -1.47241,0.145471 -2.70286,1.002312 -3.38524,2.196679 l -0.0707,0.114285 c -5.22164,9.342548 -9.16108,19.276654 -11.74938,29.630199 l -0.017,0.112509 c -0.0747,0.399899 -0.0944,0.816772 -0.0525,1.241739 0.1499,1.517285 1.05388,2.777973 2.30409,3.446905 0.0419,0.0225 0.0843,0.04421 0.127,0.06533 l 0.0841,0.0379 c 16.05026,7.970734 29.42669,20.954413 37.90815,36.876928 0.018,0.0341 0.0363,0.0683 0.0539,0.10284 l 0.18348,0.35766 c 3.5545,6.93546 4.83848,14.69006 3.71251,22.42432 -1.12657,7.73842 -4.57007,14.80671 -9.95861,20.44102 l -0.85204,0.87994 c -0.0397,0.041 -0.0794,0.0811 -0.11988,0.12079 -9.3098,9.17497 -20.75838,16.22945 -33.10838,20.40115 -8.92861,3.01582 -18.10529,4.52955 -27.40443,4.52955 -4.19461,0 -8.412924,-0.30772 -12.646644,-0.92454 -6.841973,-0.99678 -13.534829,-2.80087 -19.893309,-5.36231 -0.111788,-0.0448 -0.222588,-0.0926 -0.332006,-0.1431 l -2.409563,-1.11285 C 57.692317,157.03554 48.629201,148.52891 42.90333,138.09404 36.980151,127.29994 34.789227,115.13856 36.567168,102.92408 40.47856,76.051129 62.93114,55.835522 89.996255,54.779521 l 2.846444,-0.262322 c 0.181705,-0.01658 0.363804,-0.02645 0.546299,-0.02941 z"
       id="path-2" /><filter
       x="-0.0069399847"
       y="-0.0070753161"
       width="1.01388"
       height="1.0141506"
       filterUnits="objectBoundingBox"
       id="filter-3"><feOffset
         dx="0"
         dy="0"
         in="SourceAlpha"
         result="shadowOffsetOuter1"
         id="feOffset5" /><feGaussianBlur
         stdDeviation="0.5"
         in="shadowOffsetOuter1"
         result="shadowBlurOuter1"
         id="feGaussianBlur5" /><feColorMatrix
         values="0 0 0 0 0   0 0 0 0 0   0 0 0 0 0  0 0 0 0.5 0"
         type="matrix"
         in="shadowBlurOuter1"
         id="feColorMatrix5" /></filter></defs><g
     inkscape:label="Layer 1"
     inkscape:groupmode="layer"
     id="layer1"><g
       id="Navicat"
       transform="matrix(0.68791666,0,0,0.68791666,59.9691,50.154417)"
       style="fill:none;fill-rule:evenodd;stroke:none;stroke-width:1"><path
         d="m 28.306563,239.38502 c -0.533312,0 -0.984576,-0.164 -1.353792,-0.49199 -0.369216,-0.32799 -0.738432,-0.77897 -1.107648,-1.35295 L 5.8459207,207.46752 v 30.25705 c 0,0.45099 -0.164096,0.84047 -0.492288,1.16846 -0.3281921,0.32799 -0.7179201,0.49199 -1.1691842,0.49199 H 1.6614722 c -0.4512641,0 -0.8409921,-0.164 -1.16918414,-0.49199 C 0.16409602,238.56504 0,238.17556 0,237.72457 v -39.72775 c 0,-0.45098 0.16409602,-0.84047 0.49228806,-1.16846 0.32819204,-0.32799 0.71792004,-0.49198 1.16918414,-0.49198 h 2.1537603 c 0.533312,0 0.9845761,0.16399 1.3537921,0.49198 0.3692161,0.32799 0.7384321,0.77898 1.1076482,1.35296 l 19.9992022,30.07255 v -30.25705 c 0,-0.45098 0.164096,-0.84047 0.492288,-1.16846 0.328192,-0.32799 0.71792,-0.49198 1.169185,-0.49198 h 2.522976 c 0.451264,0 0.840992,0.16399 1.169184,0.49198 0.328192,0.32799 0.492288,0.71748 0.492288,1.16846 v 39.72775 c 0,0.45099 -0.164096,0.84047 -0.492288,1.16846 -0.328192,0.32799 -0.71792,0.49199 -1.169184,0.49199 z"
         id="N"
         fill="#424e54"
         fill-rule="nonzero" /><path
         d="m 61.104747,219.15216 v -0.79948 c 0,-2.00893 -0.66664,-3.55664 -1.99992,-4.6431 -1.33328,-1.08647 -3.066545,-1.6297 -5.199793,-1.6297 -1.64096,0 -2.92296,0.27674 -3.846,0.83022 -0.923041,0.55349 -1.794801,1.38371 -2.615281,2.49067 -0.246144,0.32799 -0.5128,0.55349 -0.799968,0.67648 -0.287168,0.123 -0.676896,0.1845 -1.169184,0.1845 h -1.84608 c -0.451264,0 -0.851248,-0.164 -1.199952,-0.49199 -0.348704,-0.32799 -0.502544,-0.71747 -0.46152,-1.16846 0.123072,-1.22996 0.728176,-2.44967 1.815312,-3.65913 1.087136,-1.20947 2.533232,-2.20369 4.338288,-2.98266 1.805057,-0.77898 3.733185,-1.16846 5.784385,-1.16846 3.815233,0 6.902289,1.06596 9.261169,3.1979 2.358881,2.13193 3.538321,5.12483 3.538321,8.97871 v 18.75691 c 0,0.45099 -0.164096,0.84047 -0.492288,1.16846 -0.328192,0.32799 -0.71792,0.49199 -1.169184,0.49199 h -2.276833 c -0.451264,0 -0.840992,-0.164 -1.169184,-0.49199 -0.328192,-0.32799 -0.492288,-0.71747 -0.492288,-1.16846 v -2.52142 c -0.656384,1.47595 -2.0512,2.64442 -4.184449,3.50539 C 54.78705,239.56951 52.653802,240 50.520554,240 c -2.092225,0 -3.958817,-0.37924 -5.599777,-1.13771 -1.64096,-0.75848 -2.902448,-1.7937 -3.784464,-3.10566 -0.882017,-1.31196 -1.323025,-2.78791 -1.323025,-4.42786 0,-3.0749 1.148673,-5.48357 3.446017,-7.22602 2.297344,-1.74244 5.353632,-2.92116 9.168865,-3.53614 z m 0,4.91984 -7.261249,1.16846 c -2.66656,0.40999 -4.738272,1.07622 -6.215137,1.99869 -1.476864,0.92247 -2.215296,2.08069 -2.215296,3.47464 0,1.02497 0.471776,1.94744 1.415328,2.76741 0.943552,0.81998 2.379392,1.22997 4.307521,1.22997 2.953728,0 5.353632,-0.84048 7.199713,-2.52142 1.84608,-1.68095 2.76912,-3.87438 2.76912,-6.5803 z"
         id="a"
         fill="#424e54"
         fill-rule="nonzero" /><path
         d="m 88.67237,239.38502 c 0.82048,0 1.43584,-0.51248 1.84608,-1.53745 l 12.24567,-28.5351 c 0.041,-0.123 0.0615,-0.2665 0.0615,-0.43049 0,-0.40999 -0.14358,-0.75848 -0.43075,-1.04547 -0.28717,-0.28699 -0.63587,-0.43048 -1.04611,-0.43048 h -2.522979 c -0.82048,0 -1.415328,0.49198 -1.784544,1.47595 l -9.538081,22.3238 -9.538081,-22.3238 c -0.369217,-0.98397 -1.046113,-1.47595 -2.030689,-1.47595 h -2.276832 c -0.41024,0 -0.758944,0.14349 -1.046112,0.43048 -0.287168,0.28699 -0.430752,0.63548 -0.430752,1.04547 0,0.16399 0.02051,0.30749 0.06154,0.43049 l 12.245665,28.5351 c 0.41024,1.02497 1.046113,1.53745 1.907617,1.53745 z"
         id="v"
         fill="#424e54"
         fill-rule="nonzero" /><path
         d="m 115.62463,200.88723 c 0,0.45099 -0.16409,0.84048 -0.49228,1.16847 -0.3282,0.32799 -0.71793,0.49198 -1.16919,0.49198 h -3.50755 c -0.45127,0 -0.84099,-0.16399 -1.16919,-0.49198 -0.32819,-0.32799 -0.49228,-0.71748 -0.49228,-1.16847 v -3.50539 c 0,-0.45098 0.16409,-0.84047 0.49228,-1.16846 0.3282,-0.32799 0.71792,-0.49199 1.16919,-0.49199 h 3.50755 c 0.45126,0 0.84099,0.164 1.16919,0.49199 0.32819,0.32799 0.49228,0.71748 0.49228,1.16846 z m -0.61536,36.83734 c 0,0.45099 -0.16409,0.84047 -0.49228,1.16846 -0.3282,0.32799 -0.71793,0.49199 -1.16919,0.49199 h -2.27683 c -0.45127,0 -0.84099,-0.164 -1.16919,-0.49199 -0.32819,-0.32799 -0.49228,-0.71747 -0.49228,-1.16846 v -28.6581 c 0,-0.45098 0.16409,-0.84047 0.49228,-1.16846 0.3282,-0.32799 0.71792,-0.49198 1.16919,-0.49198 h 2.27683 c 0.45126,0 0.84099,0.16399 1.16919,0.49198 0.32819,0.32799 0.49228,0.71748 0.49228,1.16846 z"
         id="i"
         fill="#424e54"
         fill-rule="nonzero" /><path
         d="m 137.22326,234.71117 c 4.1024,0 6.87152,-1.59895 8.30736,-4.79685 0.28717,-0.61498 0.57434,-1.04547 0.86151,-1.29146 0.28717,-0.24599 0.67689,-0.36899 1.16918,-0.36899 h 1.84608 c 0.45127,0 0.84099,0.15374 1.16919,0.46124 0.32819,0.30749 0.49228,0.66622 0.49228,1.07621 0,1.39396 -0.55382,2.89041 -1.66147,4.48936 -1.10765,1.59895 -2.70758,2.95191 -4.79981,4.05887 -2.09222,1.10697 -4.55366,1.66045 -7.38432,1.66045 -2.9127,0 -5.43568,-0.61498 -7.56893,-1.84494 -2.13324,-1.22996 -3.7742,-2.92116 -4.92288,-5.07359 -1.14867,-2.15243 -1.78454,-4.56111 -1.90761,-7.22602 -0.041,-0.49199 -0.0615,-1.43496 -0.0615,-2.82892 0,-0.98396 0.0205,-1.68094 0.0615,-2.09093 0.36921,-4.18187 1.78454,-7.58476 4.24598,-10.20868 2.46144,-2.62392 5.84592,-3.93587 10.15344,-3.93587 2.83066,0 5.28184,0.54323 7.35356,1.62969 2.07171,1.08647 3.65113,2.41893 4.73827,3.99738 1.08713,1.57845 1.67173,3.06465 1.75377,4.45861 0.041,0.45098 -0.11281,0.84047 -0.46152,1.16846 -0.3487,0.32799 -0.74868,0.49199 -1.19995,0.49199 h -1.84608 c -0.49229,0 -0.88201,-0.123 -1.16918,-0.36899 -0.28717,-0.24599 -0.57434,-0.67648 -0.86151,-1.29146 -1.43584,-3.1979 -4.20496,-4.79685 -8.30736,-4.79685 -2.25632,0 -4.22547,0.75848 -5.90745,2.27543 -1.68199,1.51695 -2.64605,3.81288 -2.8922,6.88778 -0.041,0.45099 -0.0615,1.18896 -0.0615,2.21393 0,0.94297 0.0205,1.63995 0.0615,2.09093 0.28717,3.07491 1.26149,5.37084 2.92296,6.88779 1.66148,1.51695 3.62037,2.27543 5.87669,2.27543 z"
         id="c"
         fill="#424e54"
         fill-rule="nonzero" /><path
         d="m 177.52884,219.15216 v -0.79948 c 0,-2.00893 -0.66664,-3.55664 -1.99992,-4.6431 -1.33328,-1.08647 -3.06655,-1.6297 -5.19979,-1.6297 -1.64096,0 -2.92296,0.27674 -3.846,0.83022 -0.92304,0.55349 -1.7948,1.38371 -2.61528,2.49067 -0.24615,0.32799 -0.51281,0.55349 -0.79997,0.67648 -0.28717,0.123 -0.6769,0.1845 -1.16919,0.1845 h -1.84608 c -0.45126,0 -0.85125,-0.164 -1.19995,-0.49199 -0.3487,-0.32799 -0.50254,-0.71747 -0.46152,-1.16846 0.12307,-1.22996 0.72818,-2.44967 1.81531,-3.65913 1.08714,-1.20947 2.53323,-2.20369 4.33829,-2.98266 1.80506,-0.77898 3.73319,-1.16846 5.78439,-1.16846 3.81523,0 6.90228,1.06596 9.26116,3.1979 2.35889,2.13193 3.53833,5.12483 3.53833,8.97871 v 18.75691 c 0,0.45099 -0.1641,0.84047 -0.49229,1.16846 -0.32819,0.32799 -0.71792,0.49199 -1.16919,0.49199 h -2.27683 c -0.45126,0 -0.84099,-0.164 -1.16918,-0.49199 -0.3282,-0.32799 -0.49229,-0.71747 -0.49229,-1.16846 v -2.52142 c -0.65639,1.47595 -2.0512,2.64442 -4.18445,3.50539 -2.13325,0.86097 -4.2665,1.29146 -6.39974,1.29146 -2.09223,0 -3.95882,-0.37924 -5.59978,-1.13771 -1.64096,-0.75848 -2.90245,-1.7937 -3.78447,-3.10566 -0.88201,-1.31196 -1.32302,-2.78791 -1.32302,-4.42786 0,-3.0749 1.14867,-5.48357 3.44602,-7.22602 2.29734,-1.74244 5.35363,-2.92116 9.16886,-3.53614 z m 0,4.91984 -7.26125,1.16846 c -2.66656,0.40999 -4.73827,1.07622 -6.21514,1.99869 -1.47686,0.92247 -2.21529,2.08069 -2.21529,3.47464 0,1.02497 0.47177,1.94744 1.41532,2.76741 0.94356,0.81998 2.3794,1.22997 4.30753,1.22997 2.95372,0 5.35363,-0.84048 7.19971,-2.52142 1.84608,-1.68095 2.76912,-3.87438 2.76912,-6.5803 z"
         id="path5"
         fill="#424e54"
         fill-rule="nonzero" /><path
         d="m 200.17358,228.62286 c 0,1.76294 0.35896,3.1159 1.07688,4.05887 0.71792,0.94297 2.08197,1.41446 4.09215,1.41446 h 3.2614 c 0.45127,0 0.841,0.16399 1.16919,0.49198 0.32819,0.32799 0.49229,0.71748 0.49229,1.16846 v 1.96794 c 0,0.45099 -0.1641,0.84047 -0.49229,1.16846 -0.32819,0.32799 -0.71792,0.49199 -1.16919,0.49199 h -3.87676 c -3.48704,0 -6.05105,-0.91222 -7.69201,-2.73666 -1.64096,-1.82445 -2.46144,-4.49961 -2.46144,-8.0255 v -15.928 h -4.55366 c -0.45126,0 -0.84099,-0.16399 -1.16918,-0.49198 -0.3282,-0.32799 -0.49229,-0.71748 -0.49229,-1.16847 v -1.96794 c 0,-0.45098 0.16409,-0.84047 0.49229,-1.16846 0.32819,-0.32799 0.71792,-0.49198 1.16918,-0.49198 h 4.55366 v -10.02419 c 0,-0.45098 0.1641,-0.84047 0.49229,-1.16846 0.32819,-0.32799 0.71792,-0.49199 1.16919,-0.49199 h 2.27683 c 0.45126,0 0.84099,0.164 1.16918,0.49199 0.32819,0.32799 0.49229,0.71748 0.49229,1.16846 v 10.02419 h 7.81507 c 0.45127,0 0.841,0.16399 1.16919,0.49198 0.32819,0.32799 0.49229,0.71748 0.49229,1.16846 v 1.96794 c 0,0.45099 -0.1641,0.84048 -0.49229,1.16847 -0.32819,0.32799 -0.71792,0.49198 -1.16919,0.49198 h -7.81507 z"
         id="t"
         fill="#424e54"
         fill-rule="nonzero" /><g
         id="g6"><use
           fill="#000000"
           fill-opacity="1"
           filter="url(#filter-3)"
           xlink:href="#path-2"
           id="use5" /><use
           fill="url(#linearGradient-1)"
           fill-rule="evenodd"
           xlink:href="#path-2"
           id="use6"
           style="fill:url(#linearGradient-1)" /></g></g></g></svg>
