<?xml version="1.0" encoding="UTF-8" standalone="no"?>
<!-- Created with Inkscape (http://www.inkscape.org/) -->

<svg
   width="1000.0001"
   height="1000.0001"
   viewBox="0 0 264.58335 264.58335"
   version="1.1"
   id="svg1"
   xml:space="preserve"
   inkscape:export-filename="bitmap.svg"
   inkscape:export-xdpi="96"
   inkscape:export-ydpi="96"
   xmlns:inkscape="http://www.inkscape.org/namespaces/inkscape"
   xmlns:sodipodi="http://sodipodi.sourceforge.net/DTD/sodipodi-0.dtd"
   xmlns="http://www.w3.org/2000/svg"
   xmlns:svg="http://www.w3.org/2000/svg"><rect width="100%" height="100%" fill="white"/><sodipodi:namedview
     id="namedview1"
     pagecolor="#ffffff"
     bordercolor="#cccccc"
     borderopacity="1"
     inkscape:showpageshadow="0"
     inkscape:pageopacity="1"
     inkscape:pagecheckerboard="0"
     inkscape:deskcolor="#d1d1d1"
     inkscape:document-units="mm"
     inkscape:zoom="0.78290445"
     inkscape:cx="273.97979"
     inkscape:cy="547.95959"
     inkscape:window-width="1728"
     inkscape:window-height="1051"
     inkscape:window-x="0"
     inkscape:window-y="38"
     inkscape:window-maximized="1"
     inkscape:current-layer="layer1"><inkscape:page
       x="0"
       y="0"
       width="264.58334"
       height="264.58334"
       id="page2"
       margin="0"
       bleed="0" /></sodipodi:namedview><defs
     id="defs1" /><g
     inkscape:label="Layer 1"
     inkscape:groupmode="layer"
     id="layer1"><switch
       id="switch6"
       transform="matrix(0.2611303,0,0,0.2626827,27.839547,27.218324)">
    <g
   id="g6">
      <path
   fill="#283c83"
   d="M 0,400.017 400.006,800.001 800,400.017 400.006,0.001 Z"
   id="path1" />
      <path
   fill="#ffffff"
   d="m 641.97,335.693 c -10.102,-10.367 -22.663,-15.571 -37.652,-15.571 h -5.184 c -5.777,0 -8.649,3.455 -8.649,10.388 v 152.285 c 0,15 7.208,22.516 21.624,22.516 h 8.661 v 7.802 h -98.658 v -7.802 h 8.65 c 15.021,0 22.515,-7.516 22.515,-22.516 V 330.51 c 0,-6.933 -3.19,-10.388 -9.529,-10.388 h -4.325 c -15.01,0 -27.551,5.204 -37.642,15.571 -10.124,10.41 -15.435,24.826 -16.007,43.282 h -7.802 c -6.922,-42.105 -31.431,-63.179 -73.556,-63.179 -18.456,0 -34.049,6.36 -46.727,19.038 -16.738,17.332 -25.092,43.006 -25.092,77.022 0,31.154 6.478,55.08 19.474,71.817 12.975,16.728 30.423,25.102 52.345,25.102 18.466,0 32.585,-3.466 42.422,-10.388 3.456,-2.312 5.174,-5.756 5.174,-10.389 v -46.727 c 0,-14.999 -7.209,-22.505 -21.614,-22.505 h -8.672 v -7.77 h 95.191 v 7.77 h -5.184 c -15.01,0 -22.493,7.506 -22.493,22.505 v 48.443 c -22.494,18.487 -51.359,27.731 -86.542,27.731 -39.242,0 -69.528,-15.011 -90.866,-45.021 v 40.685 H 149.137 v -7.802 h 9.508 c 13.854,0 20.767,-7.791 20.767,-23.353 V 342.616 c 0,-15 -6.912,-22.494 -20.767,-22.494 h -9.508 v -8.65 h 101.245 v 8.65 h -11.236 c -15.011,0 -22.516,6.933 -22.516,20.776 v 150.578 c 0,9.212 4.897,13.834 14.713,13.834 h 16.441 c 32.883,0 51.338,-15.275 55.397,-45.868 -7.494,-14.999 -11.247,-30.847 -11.247,-47.585 0,-31.176 10.526,-56.394 31.59,-75.739 21.03,-19.314 47.437,-28.992 79.174,-28.992 14.417,0 28.547,2.321 42.401,6.943 16.717,5.767 25.081,8.649 25.081,8.649 4.601,0 7.208,-3.742 7.791,-11.247 h 186.938 v 67.504 h -7.791 c 0,-18.455 -5.056,-32.871 -15.148,-43.282 z"
   id="path2" />
      <path
   fill="#ffc800"
   d="m 489.823,225.916 c -8.343,25.176 -12.753,38.787 -13.177,40.844 H 322.549 c -5.311,-17.597 -9.826,-31.313 -13.505,-41.141 -8.184,-24.964 -12.286,-40.312 -12.286,-46.048 0,-14.734 5.725,-26.183 17.205,-34.377 9.01,-6.551 19.006,-9.826 30.073,-9.826 16.398,0 33.783,6.158 52.206,18.423 v 50.956 l 3.689,-1.854 3.031,1.854 v -50.956 c 18.435,-12.265 35.798,-18.423 52.196,-18.423 11.067,0 21.085,3.275 30.073,9.826 11.48,8.194 17.194,19.643 17.194,34.377 0.002,5.736 -4.175,21.191 -12.602,46.345 z"
   id="path3" />
      <path
   fill="#283c83"
   d="m 479.095,155.021 c -6.964,-5.321 -14.734,-7.981 -23.32,-7.981 -13.516,0 -27.021,4.494 -40.493,13.505 v 49.736 l 12.868,6.138 28.229,-13.525 25.176,12.285 c 6.127,-15.551 9.212,-27.412 9.212,-35.606 0,-9.828 -3.902,-18.001 -11.672,-24.552 z m -135.059,-7.982 c -9.011,0 -16.972,2.66 -23.946,7.981 -7.367,6.552 -11.046,14.725 -11.046,24.551 0,8.194 2.862,20.056 8.586,35.606 l 25.176,-12.285 28.854,13.525 12.286,-6.138 v -49.736 c -13.515,-9.01 -26.83,-13.504 -39.91,-13.504 z"
   id="path4" />
      <path
   fill="#283c83"
   d="m 428.149,229.902 -28.218,-13.484 -28.271,13.484 -28.854,-13.484 -20.872,9.806 c 4.908,13.112 8.004,22.717 9.212,28.854 h 137.54 c 0.806,-6.138 3.699,-15.742 8.565,-28.854 l -20.872,-9.806 z"
   id="path5" />
      <path
   fill="#ffc800"
   d="m 406.663,140.891 h -14.12 V 129.23 h -10.42 v -13.515 h 10.42 v -11.651 h 14.12 v 11.651 h 10.42 v 13.515 h -10.42 z"
   id="path6" />
    </g>
  </switch></g></svg>
