<?xml version="1.0" encoding="UTF-8" standalone="no"?>
<!-- Created with Inkscape (http://www.inkscape.org/) -->

<svg
   width="1000.0001"
   height="1000.0001"
   viewBox="0 0 264.58335 264.58335"
   version="1.1"
   id="svg1"
   xml:space="preserve"
   xmlns="http://www.w3.org/2000/svg"
   xmlns:svg="http://www.w3.org/2000/svg"><rect width="100%" height="100%" fill="white"/><defs
     id="defs1" /><g
     id="layer1"><g
       id="g1"
       transform="matrix(0.53502194,0,0,0.53502194,28.505436,65.413927)"><path
         d="M 256.09,62.57 A 14,14 0 0 1 256.4,66 c 0,14.88 -18.09,17.49 -30.6,17.5 -48.66,0 -85,-30.16 -85,-39.38 a 6.15,6.15 0 0 1 0.22,-2 l -3.66,9.07 a 18.46,18.46 0 0 0 -1.5,7.33 c 0,18.11 41,45.46 87.8,45.42 20.7,0 36.44,-7.8 36.42,-21.82 0,-1.07 0,-1.94 -1.73,-10.13 z"
         id="path1" /><path
         d="m 225.8,83.49 c 12.51,0 30.62,-2.62 30.6,-17.5 a 14,14 0 0 0 -0.31,-3.42 L 248.61,30.21 C 246.88,23.09 245.36,19.86 232.85,13.62 223.14,8.67 202,0.49 195.75,0.5 c -5.82,0 -7.54,7.55 -14.44,7.56 -6.68,0 -11.65,-5.6 -17.9,-5.59 -6,0 -9.92,4.11 -12.93,12.52 0,0 -8.39,23.72 -9.46,27.17 a 6.15,6.15 0 0 0 -0.22,2 c 0,9.22 36.34,39.42 85,39.38 M 258.35,72 c 1.73,8.19 1.73,9.06 1.73,10.13 0,14 -15.72,21.8 -36.42,21.82 -46.79,0 -87.78,-27.31 -87.8,-45.42 a 18.46,18.46 0 0 1 1.5,-7.33 c -16.82,0.87 -38.59,3.91 -38.58,23.1 0,31.48 74.68,70.23 133.76,70.18 45.28,0 56.69,-20.54 56.68,-36.71 0,-12.73 -11,-27.16 -30.87,-35.77"
         fill="#ee0000"
         id="path2" /><path
         d="m 354.56,231.52 c 0,11.88 7.15,17.66 20.19,17.66 a 52,52 0 0 0 11.89,-1.68 v -13.78 a 24.55,24.55 0 0 1 -7.68,1.16 c -5.37,0 -7.36,-1.68 -7.36,-6.73 V 207 h 15.56 V 192.8 H 371.6 v -18 l -17,3.68 v 14.3 H 343.31 V 207 h 11.25 z m -52.94,0.31 c 0,-3.68 3.68,-5.47 9.25,-5.47 a 43.12,43.12 0 0 1 10.1,1.26 v 7.16 a 21.62,21.62 0 0 1 -10.63,2.63 c -5.46,0 -8.72,-2.11 -8.72,-5.58 m 5.19,17.56 c 6,0 10.84,-1.26 15.36,-4.31 v 3.37 H 339 V 212.8 c 0,-13.57 -9.15,-21 -24.4,-21 -8.52,0 -16.94,2 -26,6.1 l 6.1,12.52 c 6.52,-2.74 12,-4.42 16.83,-4.42 7,0 10.62,2.73 10.62,8.31 V 217 a 49.48,49.48 0 0 0 -12.62,-1.57 c -14.3,0 -22.93,6 -22.93,16.72 0,9.78 7.78,17.24 20.19,17.24 m -92.44,-0.94 h 18.09 v -28.82 h 30.29 v 28.82 h 18.09 v -73.62 h -18.07 v 28.29 h -30.29 v -28.29 h -18.09 z m -68.93,-27.87 c 0,-8 6.31,-14.09 14.62,-14.09 a 17.22,17.22 0 0 1 11.78,4.31 v 19.45 a 16.36,16.36 0 0 1 -11.78,4.42 c -8.2,0 -14.62,-6.1 -14.62,-14.09 m 26.61,27.87 h 16.83 v -77.3 l -17,3.68 v 20.93 a 28.27,28.27 0 0 0 -14.2,-3.68 c -16.19,0 -28.92,12.51 -28.92,28.5 a 28.26,28.26 0 0 0 28.4,28.6 25.12,25.12 0 0 0 14.93,-4.83 z m -77.19,-42.7 c 5.36,0 9.88,3.47 11.67,8.83 H 83.29 c 1.68,-5.57 5.89,-8.83 11.57,-8.83 m -28.71,14.93 c 0,16.2 13.25,28.82 30.29,28.82 9.36,0 16.19,-2.52 23.24,-8.41 l -11.26,-10 c -2.62,2.73 -6.52,4.2 -11.14,4.2 A 14.39,14.39 0 0 1 83.6,226.46 h 39.65 v -4.21 c 0,-17.67 -11.88,-30.39 -28.08,-30.39 a 28.57,28.57 0 0 0 -29,28.81 M 36.81,190.29 c 6,0 9.36,3.79 9.36,8.31 0,4.52 -3.37,8.31 -9.36,8.31 H 18.93 v -16.62 z m -36,58.16 H 18.93 V 221.63 H 32.7 l 13.89,26.82 H 66.78 L 50.58,219 a 22.27,22.27 0 0 0 13.89,-20.72 c 0,-13.25 -10.42,-23.45 -26,-23.45 H 0.84 Z"
         id="path3" /></g></g></svg>
