<?xml version="1.0" encoding="UTF-8"?>
<svg id="Layer_2" data-name="Layer 2" xmlns="http://www.w3.org/2000/svg" viewBox="0 0 150 150.13">
  <defs>
    <style>
      .cls-1 {
        fill: #f6da00;
      }

      .cls-1, .cls-2, .cls-3 {
        stroke-width: 0px;
      }

      .cls-2 {
        fill: #00b1ff;
      }

      .cls-3 {
        fill: #006837;
      }
    </style>
  </defs>
  <g id="Chinese_Plant" data-name="Chinese Plant">
    <g>
      <g>
        <path class="cls-1" d="m76.17,122.74c23.7,0,22.22-10.28,22.22-10.28l-.03-10.65h-22.62v-3.19h31.61s15.16,1.72,15.16-22.2-13.24-23.07-13.24-23.07h-7.9v11.1s.43,13.24-13.03,13.24h-22.43s-12.6-.2-12.6,12.18v20.48s-1.91,12.39,22.85,12.39Zm12.47-7.16c-2.25,0-4.07-1.82-4.07-4.07s1.82-4.07,4.07-4.07c2.24,0,4.07,1.81,4.07,4.06,0,0,0,0,0,.01,0,2.25-1.82,4.07-4.07,4.07Z"/>
        <path class="cls-3" d="m76.17,123.6c-10.48,0-17.65-2.17-21.32-6.44-2.7-3.14-2.46-6.33-2.39-6.87v-20.42c0-3.85,1.16-6.95,3.46-9.21,3.95-3.88,9.77-3.83,10.02-3.83h22.42c3.76,0,6.71-1.08,8.79-3.22,3.5-3.6,3.38-9.07,3.38-9.13,0,0,0-.02,0-.03v-11.1c0-.47.38-.86.86-.86h7.88c.42-.02,4.18-.09,7.74,3.26,4.23,3.97,6.38,10.92,6.38,20.67,0,9.18-2.19,15.79-6.5,19.64-4.23,3.78-8.98,3.47-9.57,3.42h-30.7v1.48h21.76c.47,0,.86.38.86.86l.03,10.6c.04.45.15,2.8-1.96,5.24-3.42,3.94-10.52,5.94-21.12,5.94Zm-10.27-45.05c-.33,0-5.46.06-8.79,3.34-1.95,1.92-2.94,4.61-2.94,7.98v20.48s0,.09-.01.13c-.02.11-.37,2.84,2.03,5.6,4.16,4.79,13.16,5.8,19.98,5.8,12.48,0,17.64-2.88,19.78-5.29,1.82-2.06,1.61-3.93,1.6-4.01,0-.03,0-.08,0-.11l-.03-9.79h-21.76c-.47,0-.86-.38-.86-.86v-3.19c0-.47.38-.86.86-.86h31.61s.06,0,.1,0c.04,0,4.47.44,8.31-3.01,3.91-3.51,5.89-9.68,5.89-18.33,0-9.09-2-15.79-5.79-19.38-3.15-2.98-6.4-2.84-6.53-2.83-.02,0-.04,0-.05,0h-7.04v10.23c.01.42.09,6.28-3.85,10.35-2.41,2.49-5.79,3.76-10.03,3.76h-22.45Zm22.74,37.89c-2.72,0-4.93-2.21-4.93-4.93s2.21-4.93,4.93-4.93h0c1.31,0,2.55.51,3.47,1.44.93.93,1.45,2.16,1.45,3.48,0,2.73-2.21,4.94-4.93,4.94Zm0-8.14h0c-1.77,0-3.21,1.44-3.21,3.21s1.44,3.21,3.21,3.21,3.21-1.44,3.21-3.21c0-.87-.34-1.67-.94-2.28-.61-.6-1.41-.94-2.26-.94Z"/>
      </g>
      <g>
        <path class="cls-2" d="m74.93,28.24c-23.7,0-22.22,10.28-22.22,10.28l.03,10.65h22.62v3.19h-31.61s-15.16-1.72-15.16,22.2,13.24,23.07,13.24,23.07h7.9v-11.1s-.43-13.24,13.03-13.24h22.43s12.6.2,12.6-12.18v-20.48s1.91-12.39-22.85-12.39Zm-12.47,7.16c2.25,0,4.07,1.82,4.07,4.07s-1.82,4.07-4.07,4.07c-2.24,0-4.07-1.81-4.07-4.06,0,0,0,0,0-.01,0-2.25,1.82-4.07,4.07-4.07Z"/>
        <path class="cls-3" d="m41.65,98.49c-.9,0-4.31-.22-7.55-3.26-4.23-3.97-6.38-10.92-6.38-20.67,0-9.18,2.19-15.79,6.5-19.64,4.23-3.78,8.98-3.47,9.57-3.42h30.7v-1.48h-21.76c-.47,0-.86-.38-.86-.86l-.03-10.6c-.04-.45-.16-2.8,1.96-5.24,3.42-3.94,10.52-5.94,21.12-5.94s17.65,2.17,21.32,6.44c2.7,3.14,2.46,6.33,2.39,6.87v20.42c0,3.85-1.16,6.95-3.46,9.21-3.95,3.88-9.77,3.83-10.02,3.83h-22.42c-3.76,0-6.71,1.08-8.79,3.22-3.5,3.6-3.38,9.07-3.38,9.13,0,0,0,.02,0,.03v11.1c0,.47-.38.86-.86.86h-7.88s-.1,0-.19,0Zm1.47-45.29c-1.29,0-4.73.29-7.78,3.03-3.91,3.51-5.89,9.68-5.89,18.33,0,9.09,2,15.79,5.79,19.38,3.15,2.98,6.4,2.84,6.53,2.83.02,0,.04,0,.05,0h7.04v-10.23c-.01-.42-.09-6.28,3.85-10.35,2.41-2.49,5.79-3.76,10.03-3.76h22.43c.07,0,5.39.03,8.81-3.34,1.95-1.92,2.94-4.61,2.94-7.98v-20.48s0-.09.01-.13c.02-.11.37-2.84-2.03-5.6-4.16-4.79-13.16-5.8-19.98-5.8-12.48,0-17.64,2.88-19.78,5.29-1.82,2.06-1.61,3.93-1.6,4.01,0,.03,0,.08,0,.11l.03,9.79h21.76c.47,0,.86.38.86.86v3.19c0,.47-.38.86-.86.86h-31.61s-.06,0-.1,0c0,0-.2-.02-.53-.02Zm19.33-8.8c-2.71,0-4.92-2.2-4.92-4.92,0-2.73,2.21-4.94,4.93-4.94s4.93,2.21,4.93,4.93-2.21,4.93-4.93,4.93h0Zm0-8.14c-1.77,0-3.21,1.44-3.21,3.21,0,1.78,1.44,3.21,3.2,3.21h0c1.77,0,3.21-1.44,3.21-3.21s-1.44-3.21-3.21-3.21Z"/>
      </g>
      <rect class="cls-3" x="66.47" y="38.67" width="31.29" height="1.72"/>
      <g>
        <path class="cls-3" d="m74.75,132.39c-15.25,0-29.58-5.94-40.36-16.72-10.78-10.78-16.72-25.11-16.72-40.36s5.94-29.58,16.72-40.36c10.78-10.78,25.11-16.72,40.36-16.72s29.58,5.94,40.36,16.72c10.78,10.78,16.72,25.11,16.72,40.36s-5.94,29.58-16.72,40.36-25.11,16.72-40.36,16.72Zm0-112.43c-14.79,0-28.69,5.76-39.14,16.21-10.46,10.46-16.21,24.36-16.21,39.14s5.76,28.69,16.21,39.14c10.46,10.46,24.36,16.21,39.14,16.21s28.69-5.76,39.14-16.21c10.46-10.46,16.21-24.36,16.21-39.14s-5.76-28.69-16.21-39.14c-10.46-10.46-24.36-16.21-39.14-16.21Z"/>
        <path class="cls-3" d="m81.71,19.1c0-3.84-3.11-6.96-6.96-6.96s-6.96,3.11-6.96,6.96"/>
        <path class="cls-3" d="m118.61,39.92c2.69-2.74,2.66-7.14-.08-9.84s-7.14-2.66-9.84.08"/>
        <path class="cls-3" d="m32.9,112.5c-3.06,2.32-7.42,1.72-9.74-1.34s-1.72-7.42,1.34-9.74"/>
        <path class="cls-3" d="m130.96,82.34c3.84,0,6.96-3.11,6.96-6.96s-3.11-6.96-6.96-6.96"/>
        <path class="cls-3" d="m18.54,82.34c-3.84,0-6.96-3.11-6.96-6.96s3.11-6.96,6.96-6.96"/>
        <path class="cls-3" d="m81.71,131.53c0,3.84-3.11,6.96-6.96,6.96s-6.96-3.11-6.96-6.96"/>
        <path class="cls-3" d="m74.93,29.09c-.47,0-.86-.38-.86-.85l-.15-20.83c0-.47.38-.86.85-.87h0c.47,0,.86.38.86.85l.15,20.83c0,.47-.38.86-.85.87h0Z"/>
        <path class="cls-3" d="m122.52,76.25c-.47,0-.86-.38-.86-.85,0-.47.38-.86.85-.87l20.83-.15h0c.47,0,.86.38.86.85,0,.47-.38.86-.85.87l-20.83.15h0Z"/>
        <path class="cls-3" d="m28.59,76.1H5.3c-.47,0-.86-.38-.86-.86s.38-.86.86-.86h23.28c.47,0,.86.38.86.86s-.38.86-.86.86Z"/>
        <path class="cls-3" d="m74.78,145.57c-.47,0-.86-.38-.86-.86v-21.24c0-.47.38-.86.86-.86s.86.38.86.86v21.24c0,.47-.38.86-.86.86Z"/>
        <path class="cls-3" d="m17.4,116.55c-.25,0-.49-.1-.66-.31-.31-.36-.26-.91.11-1.21l21.69-18.2c.36-.31.91-.26,1.21.11.31.36.26.91-.11,1.21l-21.69,18.2c-.16.14-.36.2-.55.2Z"/>
        <path class="cls-3" d="m97.78,48.95c-.25,0-.49-.11-.66-.31-.3-.36-.26-.91.11-1.21l26.02-21.7c.36-.3.91-.25,1.21.11.3.36.26.91-.11,1.21l-26.02,21.7c-.16.13-.36.2-.55.2Z"/>
        <path class="cls-3" d="m27.45,43.42c-2.79-2.64-2.91-7.04-.27-9.83s7.04-2.91,9.83-.27"/>
        <path class="cls-3" d="m113.73,116.02c2.94,2.47,7.33,2.09,9.8-.86s2.09-7.33-.86-9.8"/>
        <path class="cls-3" d="m129.27,120.62c-.19,0-.39-.07-.55-.2l-25.52-21.42c-.36-.31-.41-.85-.11-1.21.3-.36.85-.41,1.21-.11l25.52,21.42c.36.31.41.85.11,1.21-.17.2-.41.31-.66.31Z"/>
        <path class="cls-3" d="m48.54,53.22c-.19,0-.39-.07-.55-.2l-28.58-23.84c-.36-.3-.41-.85-.11-1.21.3-.36.85-.41,1.21-.11l28.58,23.84c.36.3.41.85.11,1.21-.17.2-.41.31-.66.31Z"/>
        <ellipse class="cls-3" cx="74.71" cy="4.59" rx="2.76" ry="4.59"/>
        <ellipse class="cls-3" cx="74.71" cy="145.54" rx="2.76" ry="4.59"/>
        <ellipse class="cls-3" cx="125.07" cy="25.33" rx="4.59" ry="2.76" transform="translate(12.79 85.98) rotate(-39.83)"/>
        <ellipse class="cls-3" cx="17.4" cy="115.69" rx="4.59" ry="2.76" transform="translate(-70.06 37.98) rotate(-39.83)"/>
        <ellipse class="cls-3" cx="4.59" cy="75.39" rx="4.59" ry="2.76"/>
        <ellipse class="cls-3" cx="20.58" cy="29.21" rx="2.76" ry="4.59" transform="translate(-15.02 26.2) rotate(-50)"/>
        <ellipse class="cls-3" cx="129.27" cy="119.76" rx="2.76" ry="4.59" transform="translate(-45.56 141.81) rotate(-50)"/>
        <path class="cls-3" d="m117.3,82.14c-.49,0-.97-.04-1.45-.11-2.64-.4-4.34-1.79-5.99-3.14-1.44-1.18-2.92-2.39-5.14-3.08-2.27-.71-4.85-.69-7.66.06-.46.12-.93-.15-1.05-.61-.12-.46.15-.93.61-1.05,3.13-.83,6.02-.84,8.61-.04,2.53.79,4.22,2.17,5.71,3.39,1.6,1.31,2.99,2.44,5.16,2.77,1.85.28,3.81-.1,5.85-1.12.42-.21.94-.04,1.15.38.21.42.04.94-.38,1.15-1.84.93-3.66,1.39-5.42,1.39Z"/>
        <path class="cls-3" d="m110.52,78.72c-.14,0-.28-.03-.42-.11-.42-.23-.57-.75-.34-1.17,1.09-1.97,2.77-6.01,1.76-10.93-1.62-7.86-8.86-11.2-9.68-11.55-.44-.19-.64-.69-.45-1.13.19-.44.69-.64,1.13-.45.9.39,8.89,4.07,10.68,12.79,1.12,5.46-.73,9.93-1.94,12.11-.16.28-.45.44-.75.44Z"/>
        <path class="cls-3" d="m118.35,76.17c-.24,0-.48,0-.72-.03-2.71-.23-4.51-1.66-6.24-3.04-1.6-1.27-3.11-2.47-5.33-2.81-1.71-.26-3.57.06-5.53.96-.43.2-.94,0-1.14-.42-.2-.43,0-.94.42-1.14,2.27-1.04,4.45-1.41,6.5-1.1,2.68.41,4.44,1.81,6.15,3.17,1.61,1.28,3.12,2.49,5.31,2.67,1.41.12,2.88-.2,4.36-.94.42-.21.94-.04,1.15.38.21.42.04.94-.38,1.15-1.52.76-3.05,1.15-4.55,1.15Z"/>
        <path class="cls-3" d="m112.37,73.57c-.1,0-.21-.02-.3-.07-.34-.17-.48-.58-.31-.92.62-1.25,2.09-3.54,4.98-4.8,2.03-.88,3.93-.89,5.17-.74.38.05.65.39.6.77-.05.38-.39.64-.77.6-1.07-.13-2.71-.12-4.46.64-2.5,1.09-3.77,3.06-4.3,4.14-.12.24-.36.38-.62.38Z"/>
        <path class="cls-3" d="m49.88,77.43c-1.41,0-2.76-.2-4.03-.59-2.53-.79-4.22-2.17-5.71-3.39-1.6-1.31-2.99-2.44-5.16-2.77-1.85-.28-3.81.1-5.85,1.12-.42.21-.94.04-1.15-.38-.21-.42-.04-.94.38-1.15,2.36-1.18,4.67-1.62,6.87-1.29,2.64.4,4.34,1.79,5.99,3.14,1.44,1.18,2.92,2.39,5.14,3.08,2.27.71,4.85.69,7.66-.06.46-.12.93.15,1.05.61s-.15.93-.61,1.05c-1.59.42-3.12.63-4.58.63Z"/>
        <path class="cls-3" d="m48.89,97.71c-.11,0-.23-.02-.34-.07-.9-.39-8.89-4.07-10.68-12.79-1.12-5.46.73-9.93,1.94-12.11.23-.42.75-.57,1.17-.34.42.23.57.75.34,1.17-1.09,1.97-2.77,6.01-1.76,10.93,1.62,7.86,8.86,11.2,9.68,11.56.44.19.64.69.45,1.13-.14.32-.46.52-.79.52Z"/>
        <path class="cls-3" d="m46.2,82.53c-.48,0-.96-.04-1.43-.11-2.65-.4-4.4-1.8-6.09-3.15-1.62-1.29-3.14-2.51-5.36-2.69-1.35-.11-2.76.18-4.17.85-.43.2-.94.02-1.15-.41s-.02-.94.41-1.15c1.69-.81,3.39-1.15,5.05-1.01,2.74.22,4.55,1.66,6.3,3.06,1.59,1.27,3.09,2.46,5.28,2.79,1.71.26,3.57-.06,5.53-.96.43-.2.94,0,1.14.42.2.43,0,.94-.42,1.14-1.75.8-3.45,1.21-5.08,1.21Z"/>
        <path class="cls-3" d="m30.4,84.05c-.45,0-.87-.03-1.22-.07-.38-.05-.65-.39-.6-.77.05-.38.39-.65.77-.6,1.07.13,2.71.12,4.46-.64,2.5-1.09,3.77-3.06,4.3-4.14.17-.34.58-.48.92-.31.34.17.48.58.31.92-.62,1.25-2.09,3.54-4.98,4.8-1.45.63-2.83.81-3.95.81Z"/>
        <rect class="cls-3" x="53.24" y="110.7" width="31.29" height="1.72"/>
        <rect class="cls-3" x="52.89" y="38.67" width="5.5" height="1.72"/>
        <rect class="cls-3" x="92.6" y="110.7" width="5.67" height="1.72"/>
        <path class="cls-3" d="m78.68,116.89c-.47,0-.86-.38-.86-.86v-9.02c0-.47.38-.86.86-.86s.86.38.86.86v9.02c0,.47-.38.86-.86.86Z"/>
        <path class="cls-3" d="m73.69,44.83c-.47,0-.86-.38-.86-.86v-9.02c0-.47.38-.86.86-.86s.86.38.86.86v9.02c0,.47-.38.86-.86.86Z"/>
        <path class="cls-3" d="m73.69,118.83c-3.15,1.02-6.71-1.01-8.03-3.98-.84-1.82-.96-3.96-.32-5.86,1.09-3.39,4.85-5.86,8.35-4.77,0,0,0,.17,0,.17-2.8.02-5.49,1.82-6.52,4.43-1.47,3.56.24,7.79,3.81,9.25.85.37,1.78.57,2.71.58v.17h0Z"/>
        <path class="cls-3" d="m78.68,46.73c.4-.15.93-.35,1.31-.54.35-.18.83-.45,1.14-.67,3.38-2.27,4.29-6.91,1.78-10.16-.96-1.27-2.37-2.29-4.23-2.9v-.17c1.92-.04,3.84.73,5.21,2.1,2.9,2.84,2.9,7.58,0,10.41-1.36,1.36-3.28,2.14-5.21,2.1,0,0,0-.17,0-.17h0Z"/>
        <g>
          <g>
            <circle class="cls-3" cx="58.61" cy="96.95" r=".91"/>
            <circle class="cls-3" cx="58.18" cy="99.59" r=".91"/>
            <circle class="cls-3" cx="57.82" cy="102.15" r=".91"/>
            <circle class="cls-3" cx="60.37" cy="101.37" r=".91"/>
            <circle class="cls-3" cx="62.93" cy="100.59" r=".91"/>
          </g>
          <g>
            <circle class="cls-3" cx="66.67" cy="88" r=".91"/>
            <circle class="cls-3" cx="69.24" cy="87.26" r=".91"/>
            <circle class="cls-3" cx="71.73" cy="86.59" r=".91"/>
            <circle class="cls-3" cx="71.27" cy="89.22" r=".91"/>
            <circle class="cls-3" cx="70.8" cy="91.85" r=".91"/>
          </g>
          <g>
            <circle class="cls-3" cx="68.41" cy="99.97" r=".91"/>
            <circle class="cls-3" cx="67.1" cy="97.64" r=".91"/>
            <circle class="cls-3" cx="65.79" cy="95.31" r=".91"/>
            <circle class="cls-3" cx="64.47" cy="92.98" r=".91"/>
            <circle class="cls-3" cx="63.16" cy="90.65" r=".91"/>
            <circle class="cls-3" cx="61.85" cy="88.32" r=".91"/>
          </g>
        </g>
        <g>
          <circle class="cls-3" cx="46.01" cy="58.13" r=".82"/>
          <circle class="cls-3" cx="43.75" cy="56.62" r=".82"/>
          <circle class="cls-3" cx="43.86" cy="59.21" r=".82"/>
          <circle class="cls-3" cx="44.04" cy="61.92" r=".82"/>
          <circle class="cls-3" cx="41.96" cy="63.62" r=".82"/>
          <circle class="cls-3" cx="39.83" cy="65.3" r=".82"/>
          <circle class="cls-3" cx="42.36" cy="66" r=".82"/>
          <circle class="cls-3" cx="44.99" cy="66.67" r=".82"/>
          <circle class="cls-3" cx="45.96" cy="69.18" r=".82"/>
          <circle class="cls-3" cx="46.9" cy="71.72" r=".82"/>
          <circle class="cls-3" cx="48.34" cy="69.5" r=".82"/>
          <circle class="cls-3" cx="49.79" cy="67.21" r=".82"/>
          <circle class="cls-3" cx="52.49" cy="67.08" r=".82"/>
          <circle class="cls-3" cx="55.2" cy="66.97" r=".82"/>
          <circle class="cls-3" cx="53.5" cy="64.9" r=".82"/>
          <circle class="cls-3" cx="51.77" cy="62.81" r=".82"/>
          <circle class="cls-3" cx="52.49" cy="60.2" r=".82"/>
          <circle class="cls-3" cx="53.23" cy="57.59" r=".82"/>
          <circle class="cls-3" cx="50.72" cy="58.58" r=".82"/>
          <circle class="cls-3" cx="48.2" cy="59.59" r=".82"/>
        </g>
        <ellipse class="cls-3" cx="145.41" cy="75.39" rx="4.59" ry="2.76"/>
        <g>
          <path class="cls-3" d="m84.96,99.17h-10.07v-12.39l5.03-3.72,5.03,3.72v12.39Zm-9.04-1.03h8.01v-10.83l-4-2.96-4,2.96v10.83Z"/>
          <rect class="cls-3" x="79.46" y="83.7" width="1.03" height="14.95"/>
          <rect class="cls-3" x="79.46" y="84.48" width="1.03" height="10.48" transform="translate(-37.91 113.16) rotate(-59.53)"/>
          <rect class="cls-3" x="74.73" y="89.21" width="10.48" height="1.03" transform="translate(-34.45 52.95) rotate(-30.47)"/>
          <rect class="cls-3" x="79.46" y="89.97" width="1.03" height="10.48" transform="translate(-42.64 115.86) rotate(-59.53)"/>
          <rect class="cls-3" x="74.73" y="94.7" width="10.48" height="1.03" transform="translate(-37.24 53.71) rotate(-30.47)"/>
          <g>
            <rect class="cls-3" x="78.3" y="82.71" width="3.25" height="1.68"/>
            <rect class="cls-3" x="78.58" y="81.47" width=".68" height="2.48"/>
            <rect class="cls-3" x="80.56" y="81.47" width=".68" height="2.48"/>
            <rect class="cls-3" x="80.74" y="80.23" width=".32" height="2.48"/>
            <rect class="cls-3" x="78.76" y="80.23" width=".32" height="2.48"/>
          </g>
        </g>
        <g>
          <g>
            <rect class="cls-3" x="94.08" y="94.45" width="1.03" height="4.1" transform="translate(-38.47 72.95) rotate(-35.54)"/>
            <rect class="cls-3" x="86.59" y="95.98" width="4.1" height="1.03" transform="translate(-41.41 112.53) rotate(-54.46)"/>
          </g>
          <g>
            <path class="cls-3" d="m91.66,95.79c-2.65,0-4.8-2.15-4.8-4.8s2.15-4.8,4.8-4.8,4.8,2.15,4.8,4.8-2.15,4.8-4.8,4.8Zm0-8.57c-2.08,0-3.77,1.69-3.77,3.77s1.69,3.77,3.77,3.77,3.77-1.69,3.77-3.77-1.69-3.77-3.77-3.77Z"/>
            <g>
              <rect class="cls-3" x="89.07" y="87.48" width="1.03" height="4.82" transform="translate(-33.44 121.03) rotate(-59.3)"/>
              <rect class="cls-3" x="87.18" y="91.7" width="4.82" height="1.03" transform="translate(-34.52 58.66) rotate(-30.7)"/>
              <rect class="cls-3" x="91.19" y="89.37" width="4.82" height="1.03" transform="translate(-32.77 60.38) rotate(-30.7)"/>
              <rect class="cls-3" x="93.09" y="89.94" width="1.03" height="4.82" transform="translate(-33.59 125.68) rotate(-59.3)"/>
              <rect class="cls-3" x="91.14" y="86.06" width="1.03" height="4.82"/>
              <rect class="cls-3" x="91.14" y="91.49" width="1.03" height="4.08"/>
            </g>
            <circle class="cls-3" cx="91.66" cy="90.99" r="1.55"/>
            <circle class="cls-3" cx="91.66" cy="86.68" r="1.29"/>
            <circle class="cls-3" cx="91.66" cy="95.38" r="1.29"/>
            <circle class="cls-3" cx="95.43" cy="88.82" r="1.29"/>
            <circle class="cls-3" cx="87.87" cy="93.24" r="1.29"/>
            <circle class="cls-3" cx="95.36" cy="93.39" r="1.29"/>
            <circle class="cls-3" cx="87.8" cy="88.82" r="1.29"/>
          </g>
        </g>
        <g>
          <path class="cls-3" d="m110.95,99.06h-12.89v-5.2h12.89v5.2Zm-11.86-1.03h10.83v-3.14h-10.83v3.14Z"/>
          <path class="cls-3" d="m110.95,94.88h-12.89v-3.83c0-.76.62-1.38,1.38-1.38h10.14c.76,0,1.38.62,1.38,1.38v3.83Zm-11.86-1.03h10.83v-2.8c0-.19-.15-.34-.34-.34h-10.14c-.19,0-.34.15-.34.34v2.8Z"/>
          <path class="cls-3" d="m110.13,90.71h-11.26v-3.83c0-.76.62-1.38,1.38-1.38h8.51c.76,0,1.38.62,1.38,1.38v3.83Zm-10.23-1.03h9.2v-2.8c0-.19-.15-.34-.34-.34h-8.51c-.19,0-.34.15-.34.34v2.8Z"/>
          <path class="cls-3" d="m109.49,86.54h-9.98v-3.83c0-.76.62-1.38,1.38-1.38h7.23c.76,0,1.38.62,1.38,1.38v3.83Zm-8.95-1.03h7.92v-2.8c0-.19-.15-.34-.34-.34h-7.23c-.19,0-.34.15-.34.34v2.8Z"/>
          <g>
            <path class="cls-3" d="m102.16,78.87h0v3.19h-1.24v-1.94c0-.69.56-1.24,1.24-1.24Z"/>
            <path class="cls-3" d="m106.84,78.87h1.24v3.19h0c-.69,0-1.24-.56-1.24-1.24v-1.94h0Z" transform="translate(214.92 160.93) rotate(180)"/>
          </g>
          <rect class="cls-3" x="102.31" y="81.45" width="1.03" height="17.09"/>
          <rect class="cls-3" x="105.47" y="81.45" width="1.03" height="17.09"/>
        </g>
        <path class="cls-3" d="m75.99,74.01h-18.13l.04-11.25,1.18.49c1.67.69,4.32,1.39,7.47.83,4.02-.71,6.81-3.15,8.11-4.54l1.51-1.61-.18,16.08Zm-16.4-1.72h14.7l.12-10.15c-1.7,1.43-4.25,3.04-7.55,3.63-2.88.51-5.39.09-7.24-.51l-.03,7.02Z"/>
        <path class="cls-3" d="m84.62,50.64c1.04,0,1.61.5,1.61.67v.65c0,.52.29.97.72,1.21v.7c0,.57.34,1.05.83,1.26v.79c0,.7.52,1.28,1.2,1.36v14.49h-8.71v-14.5c.67-.09,1.2-.67,1.2-1.36v-.79c.49-.21.83-.7.83-1.26v-.7c.43-.23.72-.69.72-1.21v-.65c0-.17.57-.67,1.61-.67m0-1.38h0c-1.65,0-2.98.91-2.98,2.04v.65h-.72v1.91h-.83v2.05h-1.2v17.23h11.46v-17.23h-1.2v-2.05h-.83v-1.91h-.72v-.65c0-1.13-1.34-2.04-2.98-2.04h0Z"/>
        <path class="cls-3" d="m84.62,62.3c1.08,0,1.97.82,1.97,1.83s-.88,1.83-1.97,1.83-1.97-.82-1.97-1.83.88-1.83,1.97-1.83m0-1.38c-1.85,0-3.34,1.44-3.34,3.21s1.5,3.21,3.34,3.21,3.34-1.44,3.34-3.21-1.5-3.21-3.34-3.21h0Z"/>
        <path class="cls-3" d="m87.42,73.47c-.38,0-.69-.31-.69-.69v-15.89c0-.38.31-.69.69-.69s.69.31.69.69v15.89c0,.38-.31.69-.69.69Z"/>
        <path class="cls-3" d="m89.45,57.39h-9.13c-.38,0-.69-.31-.69-.69s.31-.69.69-.69h9.13c.38,0,.69.31.69.69s-.31.69-.69.69Z"/>
        <path class="cls-3" d="m87.34,59.62h-5.37c-.38,0-.69-.31-.69-.69s.31-.69.69-.69h5.37c.38,0,.69.31.69.69s-.31.69-.69.69Z"/>
        <path class="cls-3" d="m83.75,59.62c-.38,0-.69-.31-.69-.69v-2.12c0-.38.31-.69.69-.69s.69.31.69.69v2.12c0,.38-.31.69-.69.69Z"/>
        <path class="cls-3" d="m85.59,59.62c-.38,0-.69-.31-.69-.69v-2.12c0-.38.31-.69.69-.69s.69.31.69.69v2.12c0,.38-.31.69-.69.69Z"/>
        <path class="cls-3" d="m84.6,50.19c-.38,0-.69-.31-.69-.69v-1.56c0-.38.31-.69.69-.69s.69.31.69.69v1.56c0,.38-.31.69-.69.69Z"/>
        <path class="cls-3" d="m87.71,55.15h-6.22c-.38,0-.69-.31-.69-.69s.31-.69.69-.69h6.22c.38,0,.69.31.69.69s-.31.69-.69.69Z"/>
        <path class="cls-3" d="m87.01,53.22h-4.71c-.38,0-.69-.31-.69-.69s.31-.69.69-.69h4.71c.38,0,.69.31.69.69s-.31.69-.69.69Z"/>
        <path class="cls-3" d="m81.97,73.47c-.38,0-.69-.31-.69-.69v-15.89c0-.38.31-.69.69-.69s.69.31.69.69v15.89c0,.38-.31.69-.69.69Z"/>
        <rect class="cls-3" x="103.13" y="78.87" width="1.04" height="2.58"/>
        <rect class="cls-3" x="104.94" y="78.87" width="1.04" height="2.58"/>
      </g>
    </g>
  </g>
</svg>