<svg id="visual" viewBox="0 0 1560 980" width="1560" height="980" xmlns="http://www.w3.org/2000/svg" xmlns:xlink="http://www.w3.org/1999/xlink" version="1.1"><rect x="0" y="0" width="1560" height="980" fill="#0ea5e9"></rect><defs><linearGradient id="grad1_0" x1="37.2%" y1="100%" x2="100%" y2="0%"><stop offset="18.16326530612245%" stop-color="#fde047" stop-opacity="1"></stop><stop offset="81.83673469387755%" stop-color="#fde047" stop-opacity="1"></stop></linearGradient></defs><defs><linearGradient id="grad1_1" x1="37.2%" y1="100%" x2="100%" y2="0%"><stop offset="18.16326530612245%" stop-color="#fde047" stop-opacity="1"></stop><stop offset="81.83673469387755%" stop-color="#0ea5e9" stop-opacity="1"></stop></linearGradient></defs><defs><linearGradient id="grad2_0" x1="0%" y1="100%" x2="62.8%" y2="0%"><stop offset="18.16326530612245%" stop-color="#fde047" stop-opacity="1"></stop><stop offset="81.83673469387755%" stop-color="#fde047" stop-opacity="1"></stop></linearGradient></defs><defs><linearGradient id="grad2_1" x1="0%" y1="100%" x2="62.8%" y2="0%"><stop offset="18.16326530612245%" stop-color="#0ea5e9" stop-opacity="1"></stop><stop offset="81.83673469387755%" stop-color="#fde047" stop-opacity="1"></stop></linearGradient></defs><g transform="translate(1560, 980)"><path d="M-829 0C-802 -99.2 -775 -198.4 -741.9 -307.3C-708.8 -416.2 -669.7 -534.7 -586.2 -586.2C-502.7 -637.7 -374.9 -622 -269.8 -651.3C-164.7 -680.6 -82.3 -754.8 0 -829L0 0Z" fill="#00d8b2"></path><path d="M-414.5 0C-401 -49.6 -387.5 -99.2 -370.9 -153.6C-354.4 -208.1 -334.8 -267.4 -293.1 -293.1C-251.4 -318.8 -187.4 -311 -134.9 -325.7C-82.3 -340.3 -41.2 -377.4 0 -414.5L0 0Z" fill="#fde047"></path></g><g transform="translate(0, 0)"><path d="M829 0C824.4 116.1 819.8 232.2 765.9 317.3C712.1 402.3 609.1 456.4 529.6 529.6C450.2 602.9 394.3 695.2 310 748.3C225.6 801.4 112.8 815.2 0 829L0 0Z" fill="#00d8b2"></path><path d="M414.5 0C412.2 58 409.9 116.1 383 158.6C356 201.2 304.5 228.2 264.8 264.8C225.1 301.4 197.2 347.6 155 374.2C112.8 400.7 56.4 407.6 0 414.5L0 0Z" fill="#fde047"></path></g></svg>