<svg xmlns="http://www.w3.org/2000/svg" viewBox="0 0 1200 1200">
<defs><style>.cls-1{fill:#fccc84;}.cls-2{fill:#f4962f;}.cls-3{fill:#1a0f08;}.cls-4{fill:#f9f0e7;}.cls-5{fill:#fff;}</style></defs><g id="Isolation_Mode" data-name="Isolation Mode"><path class="cls-1" d="M238.06,281.62a161.81,161.81,0,1,0,161.81-161.8,161.81,161.81,0,0,0-161.81,161.8"/><path class="cls-2" d="M270.18,360.76c0,121.68,99.5,220.33,222.24,220.33s222.24-98.65,222.24-220.33-99.5-220.33-222.24-220.33S270.18,239.07,270.18,360.76Z"/><path class="cls-2" d="M436.39,321a2,2,0,0,0,2.66-2.74,606.14,606.14,0,0,0-64.12-75.41,600.12,600.12,0,0,0-89.18-73.68,2,2,0,0,0-2.66,2.74,605.29,605.29,0,0,0,64.12,75.41A599.61,599.61,0,0,0,436.39,321Z"/><path class="cls-2" d="M328,320.58a92.47,92.47,0,0,1-72.33-108.94c.21-1,.46-2,.7-3.06A92.45,92.45,0,1,0,429,271.14,92.49,92.49,0,0,1,328,320.58Z"/><path class="cls-2" d="M419,182.42A92.47,92.47,0,0,1,393.14,310.6c-.88.58-1.77,1.12-2.66,1.66A92.45,92.45,0,1,0,312.57,145.9,92.5,92.5,0,0,1,419,182.42Z"/><path class="cls-2" d="M432.27,123.06C302.1,141.21,242,314.34,241.82,312.26,248.86,235.2,322.73,128.78,432.27,123.06Z"/><path class="cls-3" d="M927.28,451.79c0,183.33-148.63,332-332,332s-332-148.63-332-332,148.62-332,332-332,332,148.62,332,332"/><path class="cls-4" d="M607.62,349.16c-4.21-.17-8.24-.15-12.31-.17s-8.1,0-12.3.17c-209.75,8.27-240.72,161.73-240.72,161.73s60.82,179.44,111.57,220.6C483.06,755.19,557.33,794,595.31,797c38-3,112.25-41.76,141.46-65.46,50.75-41.16,111.57-220.6,111.57-220.6s-31-153.46-240.72-161.73"/><path class="cls-1" d="M961.94,281.62a161.81,161.81,0,1,1-161.81-161.8,161.81,161.81,0,0,1,161.81,161.8"/><path class="cls-2" d="M763.61,321A2,2,0,0,1,761,318.3a611.94,611.94,0,0,1,153.3-149.09,2,2,0,0,1,2.66,2.74,605.29,605.29,0,0,1-64.12,75.41A599.61,599.61,0,0,1,763.61,321Z"/><path class="cls-2" d="M872.05,320.58a92.47,92.47,0,0,0,72.33-108.94c-.21-1-.46-2-.7-3.06A92.45,92.45,0,1,1,771,271.14,92.49,92.49,0,0,0,872.05,320.58Z"/><path class="cls-2" d="M781,182.42A92.47,92.47,0,0,0,806.86,310.6c.88.58,1.77,1.12,2.66,1.66A92.45,92.45,0,1,1,887.43,145.9,92.5,92.5,0,0,0,781,182.42Z"/><path class="cls-2" d="M767.73,123.06C897.9,141.21,958,314.34,958.18,312.26,951.14,235.2,877.27,128.78,767.73,123.06Z"/><path class="cls-2" d="M924.42,409a218.74,218.74,0,0,0,5.4-48.19c0-120.59-97.74-218.5-219-220.25C824.36,182.66,908.46,285.11,924.42,409Z"/><path class="cls-5" d="M535.58,624.85s-23.85,33.33-53.27,33.33S429,624.85,429,624.85s23.85-30.58,53.27-30.58,53.27,30.58,53.27,30.58"/><path class="cls-5" d="M655.05,624.85s23.85,33.33,53.26,33.33,53.27-33.33,53.27-33.33-23.85-30.58-53.27-30.58-53.26,30.58-53.26,30.58"/><path class="cls-3" d="M675.66,611.93a33.06,33.06,0,0,1,.86-7.35,42,42,0,0,1,63.89,1.5,33.15,33.15,0,0,1,.54,5.85,32.65,32.65,0,1,1-65.29,0"/><path class="cls-3" d="M762.73,627.38s-16.18-25.16-49.28-31.47-58.4,28.94-58.4,28.94,20.61-36,44-42.08c7.5-1.94,16.81-1,16.81-1s13.65-5.61,15.71-4.35S729,585,729,585s15.4-6.21,16.39-4-4.44,9.75-4.44,9.75,19.16-11.66,20.62-8.58-8.47,13.43-8.47,13.43,31.33-14.78,32.74-9S764,609.26,764,609.26s40-15.78,41-9.83S762.31,630,762.31,630Z"/><path class="cls-5" d="M698.39,612.1a8.48,8.48,0,1,1-8.48-8.46,8.49,8.49,0,0,1,8.48,8.46"/><path class="cls-3" d="M427.89,627.38s16.18-25.16,49.29-31.47,58.4,28.94,58.4,28.94-20.62-36-44-42.08c-7.51-1.94-16.82-1-16.82-1s-13.64-5.61-15.71-4.35,2.59,7.58,2.59,7.58-15.4-6.21-16.39-4,4.44,9.75,4.44,9.75S430.5,579,429,582.11s8.47,13.43,8.47,13.43-31.33-14.78-32.74-9,21.81,22.77,21.81,22.77-40-15.78-41-9.83S428.31,630,428.31,630Z"/><path class="cls-3" d="M515,611.93a33.06,33.06,0,0,0-.86-7.35,42,42,0,0,0-63.89,1.5,33.15,33.15,0,0,0-.55,5.85,32.65,32.65,0,0,0,65.3,0"/><path class="cls-5" d="M472.21,612.11a8.48,8.48,0,1,1-8.48-8.47,8.48,8.48,0,0,1,8.48,8.47"/><path class="cls-2" d="M574.71,586a39.09,39.09,0,0,1,39.82,0,110.52,110.52,0,0,1,12.17,2.51,38.7,38.7,0,0,0-64.18,0A110.42,110.42,0,0,1,574.71,586"/><path class="cls-2" d="M561.82,587.87c0,29.81-44.31,75.82-103.18,75.82s-103.18-46-103.26-75.12c2-4.45,31.34-11.07,103.84-11.07,56.27,0,94.06,4.87,102.6,8.73Zm8.78-6.82c-5.18-14.89-109-15.33-120.8-15.33-78.22,0-118.95,6.24-121.11,19.14,0,40.78,55.59,90.6,120.46,90.6,64,0,119-48.51,120.45-89a5.63,5.63,0,0,0,1-5.45"/><path class="cls-2" d="M628.65,586.23c8.57-3.86,46.34-8.73,102.61-8.73,72.49,0,101.81,6.62,103.83,11.07-.08,29.12-44.37,75.12-103.25,75.12s-103.19-46-103.19-75.82Zm-7.78.27c1.45,40.45,56.43,89,120.45,89,64.88,0,120.48-49.82,120.48-90.6-2.17-12.9-42.91-19.14-121.11-19.14-11.83,0-115.64.44-120.81,15.33a5.65,5.65,0,0,0,1,5.45"/><path class="cls-3" d="M926.48,473.79v0l0,0c.5-7.26.82-14.57.82-22,0-183.35-148.63-332-331.94-332s-332,148.62-332,332a329.76,329.76,0,0,0,9.72,79.84v0c-6.75,9.54-15,17.19-25.74,22.1,48,2.76,111.68-2.67,142.44-9.65,1.82-.41,3.55-.89,5.2-1.42.55-.18,1-.39,1.59-.58,1.05-.38,2.12-.75,3.1-1.17.61-.26,1.15-.55,1.73-.83.84-.4,1.69-.79,2.47-1.22.58-.33,1.11-.68,1.67-1s1.4-.85,2.06-1.31,1-.79,1.55-1.2,1.18-.91,1.73-1.39.95-.9,1.42-1.36,1-1,1.44-1.46.86-1,1.27-1.52.81-1,1.18-1.5.77-1.11,1.13-1.68.65-1,.95-1.52.67-1.21,1-1.83.5-1,.74-1.52.57-1.32.84-2c.19-.49.38-1,.55-1.48.25-.71.49-1.43.7-2.16.14-.46.27-.93.39-1.4.2-.77.39-1.56.56-2.35.09-.42.17-.83.25-1.25.15-.86.3-1.71.42-2.57.05-.36.09-.72.13-1.07.11-.93.21-1.87.27-2.8,0-.28,0-.56,0-.83.06-1,.11-2,.13-3.07v-.49c0-1.14,0-2.28,0-3.41h0c.49.66,1,1.33,1.54,2l.05.06c.52.65,1.06,1.29,1.63,1.94l.1.11c.54.63,1.11,1.26,1.7,1.89l.16.17c.58.61,1.17,1.22,1.78,1.82l.23.23c.6.59,1.22,1.18,1.85,1.77l.31.28c.62.56,1.26,1.13,1.92,1.69l.41.35c.64.54,1.29,1.08,2,1.62l.5.39c.66.53,1.35,1,2.05,1.57l.58.43c.69.5,1.39,1,2.11,1.5l.7.48c.71.48,1.43,1,2.17,1.43l.82.52,2.22,1.37.95.55c.75.44,1.5.88,2.27,1.31l1.07.57c.76.42,1.54.84,2.33,1.25l1.22.61c.78.39,1.56.79,2.37,1.18l1.35.63L463,525.5l1.49.65c.82.35,1.64.71,2.48,1.05l1.66.67,2.53,1c.59.23,1.2.45,1.81.67.85.31,1.7.63,2.58.94l2,.66c.88.3,1.76.6,2.66.89l2.1.66c.9.28,1.8.56,2.72.83l2.3.66c.91.26,1.81.52,2.74.77l2.49.65,2.79.72,2.65.63,2.86.67,2.82.6c1,.21,1.93.42,2.93.62s2,.39,3,.58,2,.39,3,.57l3.23.56,3,.51c1.1.18,2.24.34,3.37.51l3.12.48,3.6.48,3.14.41c1.24.16,2.52.3,3.79.44,1.07.13,2.13.26,3.22.37,1.33.15,2.71.27,4.07.4l3.2.32,5.29.43c.75.06,1.47.13,2.23.18,2.56.19,5.17.37,7.83.52,76.62,4.48,213.17,14.5,268.91-1.5,70.63-20.27,115.55-59.86,115.55-59.86S938.51,481.23,926.48,473.79Z"/><g id="layer5"><g id="g2858"><path id="path2841-2" class="cls-3" d="M543.54,827.89c-36.7,1.91-31.65,114.53-31.65,114.53s-1.56,12.44-6.81,19.6-14,12.27-16.27,10l13.67-60.18H482.32s-10.74,60.24-22.5,62.46-8.42-10.07-8.42-22.67c0-18.55,2.52-38.89-10.92-40.57s-27.75,21.25-27.75,21.25A20.53,20.53,0,0,0,401,912.18c-13.44-6.72-47,10.08-47,10.08,3.13-14.19-2.55-32.08-18.5-31.91-14.09.85-24,10.66-33.57,18.45l13.46,13.46s13.39-15.1,20.11-6.7-25.87,164.34-25.87,164.34h20.17l19.16-80.36s43.67,3.37,52.07-6.71,15.12-37,15.12-37,18.49-20.19,16.81-13.47-3.38,52.07,5,53.75,25.2,0,25.2,0l-20.37,65.32-23.28,1.87-3.38,16.84h38.67l27.12-84.44S494.08,994,501,990.23s12.28-10.42,17.25-15.38c1.09,8.42,1.44,15,11.74,20.37,13.36,6.92,31.9,1.93,39.86-4.15,19.32,12.59,35.29-2.5,35.29-2.5s18.45,16.8,28.53,0c27.72,18.48,42.82-.78,42.82-.78s1.3,9.08,24.63,10.66,34.46-21.05,34.46-21.05c4.56,5.79,6.88,18.12,18.14,19.33s22.49-6,31-14.91c6.35,12,12.83,12.9,20.94,15.8s23.78-5.74,30.4-10.3c8.45,15.2,33.29,14.07,40.59,2.76.1.79,2,2.49,11.8,5.77,3.89-2.84,5-7.54,9.66-13.88-4.2-1.68-12.68-5.87-12.68-5.87-2.5-14-10-27-18-39.86l8.42-18.45-16.79-5c-10.35,22.46-19.06,42.37-26,55.61s-32.74,13.75-37.78,2.28c33.75-25.26,37.49-64.14,8.36-60.43-27,3.44-24.51,50.79-24.51,50.79s-9.91,9.63-23.35,11.31S760,912.44,760,912.44H741.53s-11.1,43.84-24.42,58.2c-12,13-17.19,5.23-20.48,3.69S734.47,828,734.47,828l-23.56.21-24.62,85.45c-13.44-.27-28.55-2.2-42,9.78-18.06,17-11.08,55-32,48.14-6.72,1.67,11.38-51.16,11.38-51.16-1.22-8.6-27.82-12.52-41.05-4.37-26.25,16.18-23.86,48.27-28.79,60-11.64,5.38-14.86,1.82-19.46-10,19.34-22.62,49.52-136.45,10.88-138.13A17.22,17.22,0,0,0,543.54,827.89ZM545,855.05a1.81,1.81,0,0,1,.52,0c8,.65-16,78.12-16,78.12C527,932.35,533.72,856.63,545,855.05Zm254.18,74.72c3.84-3.22,6.63-2.54,7.23-.33s-14.47,22-14.47,22C792,944,795.32,933,799.15,929.77ZM674,934.23c4.81-.13,6.71-.83,9.07,1L675.43,969c-1.68,5.11-24.45,9.24-27-2.44-2.36-11,4.08-19.52,8.76-25.4C661,936.45,667.82,934.4,674,934.23Zm-74.88.94a11.56,11.56,0,0,1,4,.68l-8.57,30.8c-4.2,5.88-15.43,8.41-16.5-.16C576.7,955.32,586.47,935.43,599.12,935.17ZM389,935.2a8.9,8.9,0,0,1,5.77,1.92c8.32,7.13,1,31.87-7.48,37.52-10.17,6.8-31.08,2-31.08,2l8.32-32.06C365.47,944.61,379.36,935,389,935.2Zm471.46,16s10.12,21.6,8.31,24.94c-4.53,8.36-20.49-.13-19.59-3Z"/><path id="path2915-9" class="cls-3" d="M758.35,872.27c18.14-.62,17.07,27.7-1.2,25.79C744.07,896.69,740.2,872.89,758.35,872.27Z"/></g></g><path class="cls-2" d="M511.85,1033.46h5.33v37.22h-5.33v-16.2H490.93v16.2h-5.32v-37.22h5.32v16.09h20.92Z"/><path class="cls-2" d="M551.66,1032.93a20,20,0,0,1,14.37,5.46,18.15,18.15,0,0,1,5.74,13.7,17.8,17.8,0,0,1-5.8,13.62,20.56,20.56,0,0,1-14.6,5.4,19.37,19.37,0,0,1-14-5.4,18,18,0,0,1-5.61-13.52,18.39,18.39,0,0,1,5.64-13.8A19.72,19.72,0,0,1,551.66,1032.93Zm.22,5.06a14.46,14.46,0,0,0-10.5,4,13.56,13.56,0,0,0-4.11,10.2,13.37,13.37,0,0,0,4.12,10,15.3,15.3,0,0,0,20.72-.08,13.66,13.66,0,0,0,4.17-10.15,13.34,13.34,0,0,0-4.17-10A14.16,14.16,0,0,0,551.88,1038Z"/><path class="cls-2" d="M615.92,1033.46H621v37.22H616.4L591.51,1042v28.67h-5v-37.22h4.32l25.1,28.91Z"/><path class="cls-2" d="M657.08,1052.35h12.49v15.78a34,34,0,0,1-13.64,3q-9.24,0-14.77-5.4a17.85,17.85,0,0,1-5.53-13.31,18.51,18.51,0,0,1,5.72-13.88,19.86,19.86,0,0,1,14.37-5.54,25.55,25.55,0,0,1,6,.68,49.73,49.73,0,0,1,7.15,2.49v5.44a26.19,26.19,0,0,0-13.22-3.87,14,14,0,0,0-10.28,4.16,14.72,14.72,0,0,0,0,20.57,14.88,14.88,0,0,0,10.76,4,25.33,25.33,0,0,0,7.65-1.46l.5-.16v-7.76h-7.16Z"/><path class="cls-2" d="M768.51,1032.79a20,20,0,0,1,14.37,5.46,18.11,18.11,0,0,1,5.74,13.7,17.79,17.79,0,0,1-5.8,13.62,20.56,20.56,0,0,1-14.6,5.4,19.37,19.37,0,0,1-14-5.4,18,18,0,0,1-5.61-13.51,18.42,18.42,0,0,1,5.64-13.81A19.72,19.72,0,0,1,768.51,1032.79Zm.22,5.06a14.46,14.46,0,0,0-10.5,4,13.57,13.57,0,0,0-4.11,10.21,13.35,13.35,0,0,0,4.12,10A15.3,15.3,0,0,0,779,1062a13.6,13.6,0,0,0,4.17-10.15,13.3,13.3,0,0,0-4.17-9.95A14.14,14.14,0,0,0,768.73,1037.85Z"/><path class="cls-2" d="M832.77,1033.32h5.06v37.22h-4.58l-24.89-28.66v28.66h-5v-37.22h4.31l25.1,28.91Z"/><path class="cls-2" d="M873.93,1052.22h12.49V1068a34,34,0,0,1-13.64,3q-9.24,0-14.77-5.4a17.83,17.83,0,0,1-5.53-13.3,18.5,18.5,0,0,1,5.73-13.88,19.78,19.78,0,0,1,14.36-5.54,25,25,0,0,1,6,.68,48.13,48.13,0,0,1,7.15,2.49v5.43a26.25,26.25,0,0,0-13.22-3.86,14,14,0,0,0-10.28,4.15,14.74,14.74,0,0,0,0,20.57,14.89,14.89,0,0,0,10.76,4,25.08,25.08,0,0,0,7.65-1.47l.51-.16V1057h-7.17Z"/><path class="cls-2" d="M727.23,1034h7.57l-17.63,17.67,20.11,19.56H729.1l-19-18.39v18.39h-5.88V1034h5.88v17Z"/><path id="path1948" class="cls-2" d="M399.16,358.12a78.13,78.13,0,0,0-13-2.36c-11.75-1.06-14.92,2.53-17,10.18L366.47,376l26.5,7.2-.91,3.36-26.5-7.2-9.95-2.7c-7.7-2.09-15.7.71-20.2,8.94-5.17,9.43-7,15.7-7.31,26.93-.25,8.36,2.73,15.17,10.43,17.26l9.11,2.47,3.29-12.1a17.45,17.45,0,0,1,21-12l26.47,7.19a13.82,13.82,0,0,0,16.91-9.86l6.85-25.23c1.95-7.18-2.64-14.22-9.51-17.38A85.73,85.73,0,0,0,399.16,358.12Zm-16.53,4.23a5.23,5.23,0,1,1-6.35,3.72A5.22,5.22,0,0,1,382.63,362.35Z"/><path id="path1950" class="cls-2" d="M421.83,394.69l-3.2,11.77c-2.48,9.12-12.3,14.7-21.12,12.3l-26.46-7.19a14,14,0,0,0-16.91,9.87l-6.85,25.23c-2,7.18,3.14,13.1,9.59,17.06a45.87,45.87,0,0,0,26.46,7.19c7.2-.12,14.83-2.22,16.91-9.86L403,451l-26.46-7.19.91-3.37,26.47,7.19,13.25,3.6c7.7,2.09,12-2.5,16.9-9.84,5-7.54,7.07-15.56,7.31-26.93.18-8.18-1.89-14.93-9.6-17Zm-32.25,59.85a5.23,5.23,0,1,1-6.34,3.69A5.18,5.18,0,0,1,389.58,454.54Z"/></g></svg>
