<?xml version="1.0" encoding="UTF-8"?>
<svg id="Layer_1" data-name="Layer 1" xmlns="http://www.w3.org/2000/svg" xmlns:xlink="http://www.w3.org/1999/xlink" viewBox="0 0 520 520">
  <defs>
    <style>
      .cls-1 {
        fill: #3c3c3b;
      }

      .cls-2, .cls-3 {
        fill: #868686;
      }

      .cls-4 {
        fill: url(#linear-gradient);
      }

      .cls-3 {
        opacity: .8;
      }
    </style>
    <linearGradient id="linear-gradient" x1="166.16" y1="101.35" x2="294.43" y2="270.97" gradientUnits="userSpaceOnUse">
      <stop offset="0" stop-color="#1d1d1b"/>
      <stop offset="1" stop-color="#9c9b9b"/>
    </linearGradient>
  </defs>
  <g>
    <polygon class="cls-4" points="231.76 137.95 231.76 266.62 310.01 213.04 231.76 137.95"/>
    <polygon class="cls-3" points="231.76 104.74 231.76 233.42 286.07 148.52 231.76 104.74"/>
  </g>
  <g>
    <path class="cls-1" d="M61.99,318.74l9.39.02c1.3,0,2.57.14,3.78.41,1.21.27,2.29.72,3.24,1.34.95.63,1.71,1.44,2.27,2.45.56,1.02.84,2.27.84,3.75,0,1.72-.49,3.19-1.47,4.42-.96,1.23-2.34,2.05-4.12,2.46v.09c2.22.19,3.97.97,5.22,2.36,1.26,1.38,1.89,3.23,1.88,5.55,0,.5-.13,1.24-.39,2.22-.25.98-.78,1.95-1.58,2.91-.81.96-1.96,1.8-3.48,2.5-1.52.71-3.54,1.05-6.06,1.05l-9.61-.02.09-31.5ZM65.12,347.31l6.14.02c1.16,0,2.24-.11,3.25-.35,1.01-.23,1.88-.6,2.62-1.08.75-.49,1.33-1.11,1.76-1.84.43-.74.65-1.63.66-2.67,0-2.07-.67-3.62-1.99-4.64-1.33-1.01-3.29-1.52-5.88-1.53l-6.54-.02-.03,12.1ZM65.16,332.54l6.45.02c.77,0,1.54-.09,2.29-.28.76-.19,1.44-.5,2.05-.95.61-.44,1.11-1.01,1.49-1.7.38-.7.59-1.55.59-2.56,0-.32-.06-.79-.2-1.38s-.42-1.19-.88-1.78c-.46-.6-1.14-1.11-2.02-1.54-.89-.43-2.09-.65-3.6-.66l-6.14-.02-.03,10.86Z"/>
    <path class="cls-1" d="M115.32,347.45l16.87.05v2.94s-20.08-.06-20.08-.06l.09-31.5,19.54.06v2.93s-16.34-.05-16.34-.05l-.03,10.73,15.26.04v2.94s-15.27-.04-15.27-.04l-.03,11.97Z"/>
    <path class="cls-1" d="M170.75,350.54h-3.2s.08-28.58.08-28.58l-10.55-.03v-2.93s24.3.06,24.3.06v2.93s-10.55-.03-10.55-.03l-.08,28.57Z"/>
    <path class="cls-1" d="M204.79,350.63h-3.74s13.79-31.47,13.79-31.47h3.12s13.62,31.55,13.62,31.55h-3.74s-3.45-8.29-3.45-8.29l-16.11-.05-3.49,8.26ZM209.5,339.44l13.66.03-6.77-16.57-6.89,16.54Z"/>
    <path class="cls-1" d="M295.75,347.94l14.69.04v2.94s-17.9-.05-17.9-.05l.09-31.5h3.2s-.08,28.57-.08,28.57Z"/>
    <path class="cls-1" d="M336.42,351h-3.74s13.79-31.47,13.79-31.47h3.12s13.62,31.55,13.62,31.55h-3.74s-3.45-8.3-3.45-8.3l-16.11-.05-3.49,8.27ZM341.13,339.8l13.66.04-6.76-16.58-6.9,16.54Z"/>
    <path class="cls-1" d="M389.72,319.64l9.39.03c1.3,0,2.57.14,3.78.41,1.21.27,2.29.72,3.24,1.34.95.63,1.71,1.44,2.27,2.45.56,1.01.84,2.26.84,3.74,0,1.72-.49,3.19-1.47,4.43-.96,1.22-2.34,2.05-4.12,2.46v.09c2.22.19,3.97.97,5.22,2.35,1.26,1.38,1.89,3.23,1.88,5.55,0,.5-.13,1.25-.39,2.22-.25.98-.78,1.95-1.58,2.91-.81.96-1.96,1.8-3.48,2.5-1.52.71-3.54,1.06-6.06,1.05l-9.61-.03.09-31.5ZM392.85,348.22h6.14c1.16.02,2.24-.09,3.25-.33,1.01-.23,1.88-.6,2.62-1.08.75-.49,1.33-1.1,1.76-1.84.43-.74.65-1.63.66-2.67,0-2.07-.67-3.62-1.99-4.64-1.33-1.01-3.29-1.52-5.88-1.52l-6.54-.02-.03,12.1ZM392.89,333.44l6.45.02c.77,0,1.54-.09,2.29-.28.76-.19,1.44-.51,2.05-.95.61-.44,1.11-1.01,1.49-1.71.38-.7.59-1.55.59-2.56,0-.32-.06-.79-.2-1.38s-.42-1.19-.88-1.78c-.46-.6-1.14-1.11-2.02-1.54-.89-.43-2.09-.65-3.6-.66h-6.14s-.03,10.85-.03,10.85Z"/>
    <path class="cls-1" d="M454.81,325.02c-1.39-2.05-3.42-3.08-6.09-3.09-.83,0-1.65.1-2.45.33-.81.22-1.52.56-2.16,1.01-.64.46-1.15,1.05-1.54,1.78-.39.72-.59,1.58-.59,2.56,0,1.43.39,2.53,1.19,3.31.8.79,1.78,1.44,2.97,1.95s2.49.97,3.89,1.37c1.41.4,2.71.94,3.89,1.61,1.18.67,2.17,1.56,2.97,2.65.8,1.1,1.19,2.6,1.19,4.5,0,1.43-.31,2.7-.92,3.84-.61,1.14-1.42,2.09-2.41,2.87-1,.76-2.11,1.36-3.34,1.77-1.23.41-2.47.61-3.71.61-1.93,0-3.76-.38-5.5-1.11-1.73-.73-3.2-1.93-4.42-3.59l2.94-2.09c.68,1.16,1.62,2.09,2.83,2.79,1.21.7,2.64,1.05,4.29,1.05.8,0,1.6-.12,2.4-.37.8-.25,1.51-.61,2.15-1.11.64-.49,1.16-1.09,1.58-1.8.41-.71.63-1.53.63-2.45,0-1.1-.23-2.01-.68-2.74-.45-.73-1.06-1.34-1.82-1.83-.75-.49-1.61-.9-2.57-1.23-.97-.32-1.96-.65-2.98-.99-1.03-.32-2.01-.7-2.97-1.12-.97-.42-1.83-.94-2.58-1.59-.75-.64-1.36-1.44-1.82-2.4-.46-.97-.68-2.18-.68-3.63,0-1.51.3-2.83.88-3.96.59-1.12,1.36-2.06,2.32-2.79.97-.74,2.06-1.29,3.27-1.65,1.22-.35,2.47-.53,3.74-.52,1.78,0,3.4.3,4.84.86,1.45.57,2.8,1.57,4.04,3l-2.81,2.17Z"/>
  </g>
  <g>
    <path class="cls-2" d="M96.6,378.36l9.6.03c1.75,0,3.19.25,4.32.72,1.13.48,2.02,1.09,2.67,1.82.65.74,1.11,1.56,1.36,2.47.26.92.38,1.8.38,2.65,0,.87-.16,1.72-.47,2.51-.31.81-.76,1.55-1.34,2.2s-1.29,1.2-2.13,1.65c-.83.45-1.77.72-2.8.82l7.72,12.48h-4.63s-6.91-12.06-6.91-12.06h-4.13s-.03,12.02-.03,12.02h-3.7s.07-27.32.07-27.32ZM100.27,390.41h4.86c.72.01,1.44-.04,2.14-.16s1.33-.32,1.89-.63c.55-.31,1-.75,1.34-1.32.33-.58.5-1.33.5-2.25,0-.93-.16-1.68-.49-2.26-.34-.59-.78-1.03-1.33-1.34-.56-.31-1.18-.52-1.89-.64-.71-.12-1.42-.18-2.14-.18l-4.86-.02-.02,8.8Z"/>
    <path class="cls-2" d="M122.8,397.87c0,.8.17,1.53.52,2.18.35.65.81,1.22,1.36,1.68.57.47,1.22.83,1.97,1.08.74.27,1.52.39,2.31.39,1.08,0,2.02-.25,2.82-.74.8-.5,1.54-1.16,2.2-1.98l2.62,2.01c-1.94,2.49-4.64,3.73-8.11,3.72-1.44,0-2.74-.25-3.91-.75-1.17-.49-2.16-1.16-2.97-2.03-.81-.87-1.43-1.88-1.87-3.05-.43-1.17-.65-2.43-.64-3.8,0-1.37.24-2.63.72-3.8.48-1.17,1.14-2.18,1.98-3.04.84-.86,1.84-1.53,3-2.02,1.15-.48,2.42-.72,3.78-.72,1.62,0,2.99.3,4.11.86s2.03,1.31,2.75,2.22c.72.92,1.23,1.95,1.55,3.09.32,1.14.47,2.31.47,3.49v1.23s-14.66-.04-14.66-.04ZM133.77,395.13c-.03-.77-.15-1.48-.37-2.13-.21-.64-.54-1.21-.98-1.68s-.98-.85-1.63-1.12c-.65-.27-1.43-.41-2.29-.41-.85,0-1.63.16-2.34.48-.71.32-1.3.73-1.8,1.25-.49.52-.86,1.08-1.14,1.72-.27.63-.41,1.25-.41,1.87l10.96.03Z"/>
    <path class="cls-2" d="M142.1,380.96c0-.7.26-1.29.76-1.79.5-.5,1.11-.75,1.8-.75.7,0,1.29.25,1.78.76.5.5.75,1.1.75,1.79,0,.7-.25,1.29-.76,1.8-.5.5-1.1.75-1.79.75-.7,0-1.29-.25-1.8-.76-.49-.5-.75-1.1-.75-1.8ZM142.89,387.52h3.47s-.05,18.29-.05,18.29h-3.47s.05-18.29.05-18.29Z"/>
    <path class="cls-2" d="M152.84,387.55h3.24s0,2.86,0,2.86h.08c.08-.26.28-.58.6-.96.32-.38.74-.75,1.24-1.1.5-.35,1.1-.64,1.77-.89.68-.24,1.44-.36,2.26-.36,1.36,0,2.5.29,3.43.86.93.56,1.68,1.41,2.27,2.55.59-1.13,1.43-1.98,2.51-2.54,1.08-.57,2.17-.85,3.28-.85,1.41,0,2.57.24,3.47.71.9.47,1.61,1.08,2.11,1.84.52.76.86,1.63,1.05,2.59.2.97.28,1.96.28,2.99l-.03,10.64h-3.47s.02-10.19.02-10.19c0-.7-.04-1.36-.13-2s-.27-1.21-.56-1.7c-.28-.49-.67-.89-1.19-1.18s-1.19-.45-2.05-.45c-1.67,0-2.86.51-3.59,1.54-.72,1.02-1.08,2.35-1.09,3.96l-.02,9.99h-3.47s.02-9.58.02-9.58c0-.87-.04-1.67-.13-2.39-.09-.72-.27-1.34-.54-1.87-.27-.53-.65-.94-1.15-1.23-.5-.3-1.18-.45-2.03-.45-.61,0-1.21.12-1.79.37-.58.24-1.1.6-1.53,1.09-.44.49-.78,1.11-1.05,1.87-.25.75-.38,1.65-.39,2.68l-.02,9.49h-3.47s.05-18.29.05-18.29Z"/>
    <path class="cls-2" d="M186.74,389.88c.99-.9,2.11-1.57,3.4-2.02,1.28-.45,2.57-.67,3.85-.67,1.34,0,2.49.17,3.45.52.96.34,1.76.79,2.37,1.36.61.56,1.07,1.21,1.37,1.95.29.73.43,1.49.43,2.29l-.03,9.33c0,.64.01,1.23.03,1.77s.06,1.05.12,1.54h-3.09c-.08-.94-.12-1.86-.11-2.79h-.08c-.78,1.18-1.69,2.02-2.75,2.5-1.06.49-2.28.73-3.67.72-.85,0-1.66-.12-2.43-.35-.76-.23-1.44-.59-2.02-1.05s-1.03-1.03-1.36-1.72c-.34-.68-.5-1.48-.49-2.38,0-1.18.27-2.17.79-2.97.53-.79,1.25-1.44,2.17-1.94.91-.5,1.98-.86,3.2-1.07s2.53-.32,3.92-.32h2.54s0-.76,0-.76c0-.46-.09-.93-.27-1.39-.18-.46-.45-.88-.8-1.25-.37-.37-.81-.67-1.35-.89s-1.18-.33-1.93-.34c-.67,0-1.25.07-1.76.19-.5.13-.96.29-1.37.48s-.79.41-1.12.67c-.34.26-.65.5-.97.74l-2.07-2.17ZM196.52,397.15c-.83,0-1.67.05-2.53.13-.86.09-1.65.25-2.36.52-.71.25-1.29.61-1.74,1.07s-.68,1.05-.68,1.77c0,1.05.35,1.81,1.05,2.28.71.47,1.66.7,2.87.71.96,0,1.76-.16,2.43-.48.67-.32,1.21-.73,1.62-1.25.42-.52.71-1.08.89-1.72.19-.63.28-1.25.28-1.87v-1.16s-1.84,0-1.84,0Z"/>
    <path class="cls-2" d="M225.91,405.87c0,1.39-.25,2.65-.72,3.8-.48,1.14-1.16,2.13-2.03,2.97-.87.83-1.93,1.48-3.17,1.94-1.23.46-2.6.68-4.09.68-1.75,0-3.35-.25-4.8-.75-1.45-.49-2.83-1.34-4.14-2.56l2.36-2.92c.9.97,1.87,1.72,2.93,2.22,1.05.5,2.25.75,3.59.76,1.29,0,2.35-.18,3.2-.55.85-.37,1.52-.85,2.03-1.44.5-.59.85-1.26,1.07-2.02.2-.76.31-1.52.31-2.29v-2.7s-.11,0-.11,0c-.67,1.1-1.58,1.92-2.72,2.43-1.15.53-2.35.79-3.61.79-1.34,0-2.57-.25-3.72-.72-1.14-.48-2.13-1.14-2.94-1.98-.82-.84-1.46-1.83-1.92-2.97-.46-1.15-.68-2.39-.68-3.73,0-1.34.22-2.59.67-3.75.43-1.17,1.07-2.2,1.87-3.07.82-.86,1.8-1.55,2.94-2.03,1.15-.49,2.43-.73,3.84-.72,1.23,0,2.43.28,3.6.82,1.17.54,2.08,1.3,2.75,2.29h.08v-2.62s3.48,0,3.48,0l-.05,18.12ZM216.47,390.5c-.93,0-1.76.16-2.51.48s-1.38.75-1.89,1.31c-.52.55-.92,1.22-1.2,2-.28.78-.43,1.64-.43,2.57,0,1.85.53,3.33,1.61,4.46,1.07,1.12,2.54,1.69,4.39,1.69,1.85,0,3.31-.56,4.4-1.67,1.08-1.12,1.62-2.6,1.63-4.44,0-.93-.13-1.78-.42-2.57-.28-.79-.68-1.46-1.19-2.01-.52-.56-1.14-1-1.89-1.32-.74-.32-1.58-.49-2.5-.49Z"/>
    <path class="cls-2" d="M231.64,381.21c0-.7.26-1.29.76-1.8.5-.5,1.11-.75,1.8-.75.7,0,1.29.25,1.78.76.5.5.75,1.1.75,1.8,0,.7-.25,1.29-.76,1.79-.5.5-1.1.75-1.79.75-.7,0-1.29-.25-1.8-.76-.49-.5-.75-1.1-.75-1.79ZM232.44,387.76h3.47s-.05,18.29-.05,18.29h-3.47s.05-18.29.05-18.29Z"/>
    <path class="cls-2" d="M242.39,387.79h3.47s0,2.83,0,2.83h.08c.43-.98,1.2-1.77,2.28-2.36,1.08-.6,2.32-.9,3.74-.9.87,0,1.72.14,2.53.41s1.52.7,2.12,1.26c.6.57,1.08,1.29,1.44,2.18.35.89.53,1.94.53,3.15l-.03,11.76h-3.47s.03-10.81.03-10.81c0-.85-.12-1.57-.34-2.18-.23-.6-.54-1.09-.93-1.47-.38-.38-.82-.65-1.32-.81-.5-.17-1.03-.26-1.56-.26-.72,0-1.38.12-2,.34-.61.23-1.16.6-1.62,1.1-.46.49-.82,1.13-1.09,1.9-.25.77-.38,1.69-.39,2.74l-.02,9.41h-3.47s.05-18.29.05-18.29Z"/>
    <path class="cls-2" d="M267.39,398.27c0,.8.17,1.52.52,2.18.35.65.81,1.22,1.36,1.69.57.46,1.22.83,1.97,1.08.74.26,1.52.39,2.31.39,1.08,0,2.02-.25,2.82-.75s1.54-1.16,2.2-1.98l2.62,2.02c-1.94,2.49-4.64,3.73-8.11,3.72-1.44,0-2.74-.25-3.91-.75-1.17-.49-2.16-1.16-2.97-2.03-.81-.86-1.43-1.88-1.87-3.05-.43-1.18-.65-2.44-.64-3.8,0-1.37.24-2.63.72-3.8.48-1.17,1.14-2.18,1.98-3.04.84-.86,1.84-1.54,3-2.02,1.15-.48,2.42-.73,3.78-.72,1.62,0,2.99.29,4.11.86,1.12.56,2.03,1.31,2.75,2.22.72.92,1.23,1.95,1.55,3.09.32,1.14.47,2.31.47,3.49v1.23s-14.66-.04-14.66-.04ZM278.36,395.53c-.03-.77-.15-1.48-.37-2.12s-.54-1.21-.98-1.68c-.43-.48-.98-.85-1.63-1.12-.65-.27-1.43-.41-2.29-.41-.85,0-1.63.16-2.34.48-.71.31-1.3.73-1.8,1.25-.49.52-.86,1.08-1.14,1.71-.27.63-.41,1.25-.41,1.87l10.96.03Z"/>
    <path class="cls-2" d="M296.69,387.94h3.89s4.07,13.67,4.07,13.67h.08l4.41-13.64h3.7s4.59,13.67,4.59,13.67h.08l3.93-13.64h3.7s-5.94,18.27-5.94,18.27h-3.51s-4.8-13.67-4.8-13.67h-.08l-4.44,13.64h-3.7s-5.97-18.31-5.97-18.31Z"/>
    <path class="cls-2" d="M328.6,381.48c0-.7.26-1.29.76-1.8.5-.5,1.11-.75,1.8-.75.7,0,1.29.25,1.78.76.5.5.75,1.1.75,1.8,0,.7-.25,1.29-.76,1.79-.5.5-1.1.75-1.79.75-.7,0-1.29-.25-1.8-.76-.49-.5-.75-1.1-.75-1.79ZM329.39,388.03h3.47s-.05,18.29-.05,18.29h-3.47s.05-18.29.05-18.29Z"/>
    <path class="cls-2" d="M349.13,391.09l-4.97-.02-.02,8.29c0,.52,0,1.03.03,1.52.03.51.12.96.28,1.36.17.4.42.72.77.97.35.24.86.37,1.52.37.41,0,.83-.04,1.27-.12.43-.08.83-.21,1.19-.42v3.16c-.42.23-.96.39-1.61.48-.65.09-1.16.13-1.52.13-1.34,0-2.37-.19-3.1-.57-.73-.37-1.27-.86-1.62-1.45-.34-.59-.55-1.26-.61-1.99-.06-.73-.09-1.47-.09-2.22l.03-9.53h-4.02s0-3.02,0-3.02h4.02s.02-5.12.02-5.12h3.47s-.02,5.13-.02,5.13l4.97.02v3.01Z"/>
    <path class="cls-2" d="M354.61,377.22h3.47s-.03,13.7-.03,13.7h.08c.43-.98,1.2-1.76,2.28-2.36,1.08-.6,2.32-.9,3.74-.9.87,0,1.72.14,2.53.41.81.28,1.52.7,2.12,1.26.6.57,1.08,1.3,1.44,2.18.35.89.53,1.94.53,3.15l-.03,11.76h-3.47s.03-10.81.03-10.81c0-.85-.12-1.57-.34-2.18-.23-.6-.54-1.09-.93-1.47-.38-.37-.82-.65-1.32-.81-.5-.17-1.03-.25-1.56-.26-.72,0-1.38.12-2,.35-.61.23-1.16.59-1.62,1.1-.46.5-.82,1.13-1.09,1.9-.25.77-.38,1.69-.39,2.74l-.02,9.41h-3.47s.08-29.17.08-29.17Z"/>
    <path class="cls-2" d="M398.14,379.2h3.35s11.62,27.34,11.62,27.34h-4.32s-2.72-6.77-2.72-6.77l-13-.03-2.72,6.74h-4.32s12.1-27.28,12.1-27.28ZM404.73,396.53l-5.05-12.54h-.08l-5.2,12.52,10.34.03Z"/>
    <path class="cls-2" d="M417.7,379.25h3.7s-.07,27.31-.07,27.31h-3.7s.07-27.31.07-27.31Z"/>
  </g>
</svg>
